<svg xmlns="http://www.w3.org/2000/svg" viewBox="0 0 500 500"><defs><style>.cls-1{fill:none;}</style></defs><title>アセット 12</title><g id="レイヤー_2" data-name="レイヤー 2"><g id="レイヤー_1-2" data-name="レイヤー 1"><path d="M238.11,387.12v.25C238.53,387.54,238.11,387.12,238.11,387.12Z"/><path d="M455.67,262.29A4.72,4.72,0,0,1,453,262c-.83-.52-1.29-1.48-2.11-2s-2.61.47-2.83-.94c-.14-.9.93-1.48,1.64-1.48,2.38,0,7.13-1.19,8.32-1.19s3.56-2.37,1.19-2.38c-2.83,0-5.66.06-8.49.09-2.42,0-5.45.47-7.79-.12a7.38,7.38,0,0,1,2.64-1.12,4.41,4.41,0,0,0,1.38-.54c.12-.08.75-.78.8-.78-.89-.09-1.48-.71-2.35-.79a10.2,10.2,0,0,0-2.69.31,19.94,19.94,0,0,0-4.9,1.76A29.83,29.83,0,0,1,426,255.16c-4.76,0-8.32-1.19-8.32,0s-10.7,10.7-10.7,10.7S395,278.94,391.48,281.31s-9.51,4.76-10.7,7.13-3.57,4.76-4.76,8.32-2.38,3.57-2.38,3.57a24.59,24.59,0,0,1-9.51,2.38c-4.76,0-15.46,0-19,2.38-2.91,1.94-6.08,2.86-9.19,4.28-1.58.72-1.08,1.2-1.45,2.79a8.14,8.14,0,0,1-2.44,3.63c1.3-1.3.82-4,.11-6.24-.83-.73-1-2-2-2.71a5.24,5.24,0,0,0-4.6-.24,4,4,0,0,1-2.31.24.46.46,0,0,1-.27-.12.5.5,0,0,1-.05-.42c1.1-6.5,1.89-13.67.8-20.24a52.28,52.28,0,0,1-.89-8.92,18.52,18.52,0,0,1-.17-3.3c.36-1.42,2.21-1.1,3.34-1.07,1.83.06,3.24.09,4.85-1,3.57-2.38,10.7-8.32,10.7-8.32s9.51-10.7,11.89-13.08,9.51-7.13,11.89-10.7,8.32-11.89,10.7-14.27l3.15-3.15,1.11-1.11c.28-.28.8-.53,1-.86a1.52,1.52,0,0,0,.13-.75,6.8,6.8,0,0,0-.2-1.58,2,2,0,0,0-.45-.93.83.83,0,0,0-1-.2,4.44,4.44,0,0,0,.07,1.38.42.42,0,0,1,0,.31.38.38,0,0,1-.1.1,11.79,11.79,0,0,1-2.72,1.29,6.76,6.76,0,0,0-1.43.77c-.26.19-.74.94-1,1-.54.09-.87-1-1-1.41a6.89,6.89,0,0,1,.49-4.12,12.45,12.45,0,0,1,1.85-3.6,22.52,22.52,0,0,0,2.08-3.09,5.91,5.91,0,0,1,2.53-2.63,2,2,0,0,0,.43-.24,1.07,1.07,0,0,0,.27-1.11,3.15,3.15,0,0,0-.61-1c-.41-.53-2.07.31-2.51.64a9.32,9.32,0,0,0-2.29,2.56c-.33.51-.65,1.05-1,1.61-.46.74-.92,1.49-1.41,2.21-.33.49-.73,1.3-1.31,1.54-1.41.58-1.44-1-1.43-1.87s0-1.63,0-2.44c0-1.63.08-3.25.25-4.87a21.67,21.67,0,0,1,.55-3.07,9.72,9.72,0,0,1,.78-2.43,9.2,9.2,0,0,1,1.52-1.59,12.09,12.09,0,0,1,.85-.86c.58-.47,1.75.09,1.74-.95a3,3,0,0,0-.28-1.45c-.26-.39-.44-.28-.93-.17a7.79,7.79,0,0,0-2.23.9,13.17,13.17,0,0,0-3.54,3.18,6.75,6.75,0,0,0-1,1.72,5.43,5.43,0,0,0-.35,1.38c-.16,1.41-.21,2.86-.42,4.25a13.55,13.55,0,0,1-.76,2.44c-.28.78-.21,1.34-1.06,1.55s-2.44.77-2.8-.22a8,8,0,0,1-.06-2.6V204a8.88,8.88,0,0,1,.14-2,1.83,1.83,0,0,0,.09-.56,1.5,1.5,0,0,0-.16-.5l-.48-1.05a.28.28,0,0,0-.41-.19,3.2,3.2,0,0,0-1,.39c-.8.55-.32,1.16-.25,1.89.09.93.06,1.92.07,2.85a8.59,8.59,0,0,1-.25,3.35,2.49,2.49,0,0,0-.38,1.33c.09.47.47.75.57,1.23.14.74.2,1.51.28,2.26a86.69,86.69,0,0,1,.58,8.85c0,3.57,0,5.94-1.19,9.51s-1.19,4.76-5.94,8.32S339.17,251.59,334.41,254s-10.7,4.76-11.89,5.94l-4.76,4.76c-1.19,1.19-2.38,1.19-3.57,3.57s-2.38,1.19-3.57,5.94-3.57,5.94-4.76,13.08-1.19,4.76-1.19,14.27-1.19,10.7-3.57,13.08-5.94,7.13-13.08,8.32S275,331.25,275,331.25s-4.76,4.76-5.94,9.51a33.35,33.35,0,0,0-1.19,5.94l-.38-.08c-1.93-.39-10.72-2-13.89.08a27.37,27.37,0,0,1-10.7,3.57c-1.77,0-4.46-.56-6,.35-1.8,1.06-2.82,3.11-4.1,4.67q-3.18,3.86-6.29,7.77c-2,2.55-4,5.11-5.93,7.76-.76,1.06-2.62,3-2.62,4.42,0,2.38-1.19,4.76,0,5.94s2.38,9.51,2.38,9.51c0,.22,1.24.84,1.42.95a8.31,8.31,0,0,0,2.17.91.23.23,0,0,0,.19,0,.22.22,0,0,0,.07-.11,2.8,2.8,0,0,0-.22-2.2c-.38-.75-1-1.31-1.34-2.07a11.52,11.52,0,0,1-.76-2.55,18.11,18.11,0,0,1-.33-3.25,5.74,5.74,0,0,1,4.76,0c2.38,1.19,9.51,5.94,9.51,7.13s2.38,1.19,2.38,1.19v-3.31a17.66,17.66,0,0,1-2.38-1.44,81.05,81.05,0,0,1-8.32-5.94c-1.19-1.19-1.19,0,0-1.19s15.46,0,15.46,0a1.68,1.68,0,1,0,2.38-2.38s-1.19-2.38-2.38-1.19-1.19,1.19-4.76,1.19a7.5,7.5,0,0,1-4.24-1.17c-.5-.38-2.48-2.73-2.45-.65,0,1.37-1.65,1.13-1.52,0,.09-.71,1.05-1.35,1.59-1.69a13.72,13.72,0,0,1,3-1.26l7.13-2.38a1.16,1.16,0,0,0,1.19-1.19c0-1.19-2.38-2.38-2.38-1.19s-4.76,3.57-5.94,3.57-4.76,1.19-5.94,0,0,0,1.19-1.19,7.13-9.51,10.7-10.7,5.94,0,10.7,0h9.51v3.57s-3.57,3.57-5.94,4.76-2.38,3.57-1.19,4.76,0,7.13,0,7.13-1.19,9.51,0,10.7,0,1.19,2.38,2.38a11.76,11.76,0,0,0,9.51,1.19c4.76-1.19,5.94-3.57,9.51-3.57s4.76-1.19,4.76-1.19,0,1.19,2.38,0,2.38-4.76,2.38-4.76,0-1.19,2.38-1.19,2.38-1.19,2.38-2.38,4.76,4.76,8.32,7.13a32.52,32.52,0,0,1,5.94,4.76c1.19,1.19,1.19,3.57,1.19,3.57S296.37,410.9,294,410.9s-2.38-1.19-3.57-2.38-2.38-4.76-1.19-5.94,0-1.19-1.19-1.19-1.19,4.76-1.19,4.76l1.19,2.38c0,1.19,0,2.38,0,3.57-.54-.35-1.27-.38-1.85-.74-1.8-1.11-3.11-2.83-4.61-4.27a50.34,50.34,0,0,0-3.86-3.26,7.49,7.49,0,0,0-2.43-1.68,2.44,2.44,0,0,0-2.11,1.24c-.45.89.79,1.76,1.47,2.05a10.49,10.49,0,0,1,2.32,1.49c.77.57,1.5,1.24,2.29,1.8a21.9,21.9,0,0,1,2.85,2.18c1.19,1.19,1.19,3.57,0,2.38s-15.46-3.57-15.46-3.57a3.53,3.53,0,0,0-1.84.4c-.83.56-.46,1.77-.47,2.66a.44.44,0,0,0,.11.37.43.43,0,0,0,.24.06c1.35.07,2.64,0,4,.14,1.16.1,2.32.26,3.48.4a65,65,0,0,0,7.58.74,2.18,2.18,0,0,1,1.85,3c-.37.87-1.58,1.12-2.37,1.49q-2,.94-4,2a60.36,60.36,0,0,1-7.92,3.76,2,2,0,0,0-1,.58c-.77,1,.57,2.31,1.54,2.31,1.23,0,2.64-1,3.67-1.54,1.81-1,3.57-2.11,5.31-3.24.81-.53,1.66-1,2.44-1.61,1-.74,1-1.22,2.44-1.16a36,36,0,0,0,8.47-.12c2-.38,5.19-1,6.2-3a15.85,15.85,0,0,1,5.94-7.13c3.57-2.38,11.89-10.7,13.08-14.27s-3.57-7.13-4.76-8.32-4.76-5.94-4.76-7.13-1.19-4.76-2.38-4.76,1.19-2.38,2.38-2.38,9.51-2.38,11.89-4.76,9.51-8.32,11.89-14.27S330.85,339.57,332,336s4.76-7.13,5.94-8.32,10.7-5.94,16.64-8.32,16.64-7.13,20.21-9.51,8.32-3.57,9.51-5.94,15.46-20.21,17.83-22.59,13.08-17.83,16.64-17.83,16.64-1.19,17.83,0c1.63,1.63,5.09,2.3,7.2,3,1.22.4,2.1,1,3.4.78.83-.12,1.66-.26,2.5-.36.61-.07,2.11.16,2.59-.16,1.71-1.12-2.27-1-2.65-1a1.26,1.26,0,0,1-.94-.23c-.13-.15-.11-.37.18-.66a6.06,6.06,0,0,1,2.33-.73c1.87-.16,3.74.52,5.61.52,2.17,0,4.75.28,6.82-.47a4.82,4.82,0,0,0,2.31-1.8C462.56,262.39,459.12,262.29,455.67,262.29Z"/><path d="M246.74,195.8c5.12-9,7.69-15.37,6.4-21.78-1.22-6.11-5.89-11.89-10.35-16-3.16-2.91-7-5.31-9.27-9-2.45-4-2.44-7.82-6.61-10.8-2.76-2-6-3.23-8.8-5.07-7.06-4.56-11.64-10.5-20-12.9-9-2.56-10.25-6.4-29.46-6.4s-21.78,1.28-25.62,2.56-9,6.4-9,9c0,4.4.59,8.31,3.56,11.34.16-.65.35-1.31.58-2A21.7,21.7,0,0,1,141,129a32.1,32.1,0,0,1,4.1-4.62,50.24,50.24,0,0,1,4.66-3.9l.12-.09.6.73-.11.1a48.83,48.83,0,0,0-4.1,4.26,29.73,29.73,0,0,0-3.37,4.71,19.38,19.38,0,0,0-2,5.26c-.07.3-.13.61-.19.93a15,15,0,0,1,3-2.53,18.66,18.66,0,0,1,1.92-1.07c.73-.31,1.38-.59,2-.81l3.72-1.44a128,128,0,0,1,15.34-5,59.19,59.19,0,0,1,8-1.45,53.35,53.35,0,0,1,8.12-.13,129.74,129.74,0,0,1,16,1.57l.15,0-.14.94-.16,0a128.91,128.91,0,0,0-15.88-.92,52.15,52.15,0,0,0-7.84.43,57.08,57.08,0,0,0-7.67,1.71,125.58,125.58,0,0,0-14.83,5.51l-3.67,1.59c-.5.21-.94.42-1.37.62l-.36.17a15.3,15.3,0,0,0-1.5.92,11.75,11.75,0,0,0-2.53,2.41,10.31,10.31,0,0,0-1,1.65c8.26,3.51,16.55,7.28,24.65,11.21,1.74.84,3.45,1.71,5,2.53a135.49,135.49,0,0,1,16.41-2.54,75,75,0,0,1,8.65-.14c3.32.07,6,.15,8.53.25a140.91,140.91,0,0,1,17.06,1.59,61.24,61.24,0,0,1,16.29,5.41l.14.07-.4.87-.14-.06A59.91,59.91,0,0,0,222.1,155a140,140,0,0,0-16.87-.93c-2.38,0-5.08,0-8.49.07a72.39,72.39,0,0,0-8.36.45,121.63,121.63,0,0,0-12,2.14c1,.53,2,1.08,3.05,1.64,4.09,2.28,8,4.66,12.42,7.32,3.74,2.28,8.06,5,12.1,7.95a130.2,130.2,0,0,1,11.18,9.22c3.34,3,6.69,6.37,10.24,10.18,3.8,4.05,6.84,7.47,9.56,10.76l.1.12-.7.63-.11-.11c-7.72-7.93-14.32-14.19-20.76-19.68-4.37-3.67-7.84-6.35-11.24-8.68s-7.24-4.74-12.05-7.56L184,165c-2.48-1.45-4.39-2.54-6.2-3.53-2.67-1.46-5.42-2.87-7.56-3.95.5,3.46,1,6.37,1.49,9.13A62.6,62.6,0,0,0,175,178.87c1.62,4.27,3.16,8.21,4.73,12,.91,2.21,1.73,4.16,2.51,5.94l.11.25a53.71,53.71,0,0,0,2.71,5.5l.08.13-.81.51-.09-.13a54.4,54.4,0,0,1-3-5.46l-.13-.25c-.89-1.78-1.82-3.7-2.82-5.85-1.75-3.74-3.54-7.72-5.33-11.83a64.88,64.88,0,0,1-4-12.52c-.84-3.56-1.64-7.37-2.44-11.62l-1.36-.68c-7.66-3.76-15.9-7.59-25.91-12.07l-1.67-.57c-.5,3.51-.9,7.05-1.18,10.53a111.25,111.25,0,0,0-.41,12c.12,3.66.45,7.58,1,12s1.24,8.26,2,11.9l0,.15-.92.23,0-.15c-1-3.62-1.86-7.51-2.68-11.88s-1.37-8.38-1.68-12.1a111.84,111.84,0,0,1-.23-12.26c.09-3.13.27-6.28.54-9.62a83.2,83.2,0,0,0-7.36,4.89,51.32,51.32,0,0,0-4.54,3.81,33.4,33.4,0,0,0-3.82,4.48,96.72,96.72,0,0,0-6.52,10.14c-1.15,2.07-2,3.78-2.73,5.38a33.84,33.84,0,0,0-2.07,5.62l0,.15-.93-.2,0-.15a46.49,46.49,0,0,1,4.21-11.6,87.73,87.73,0,0,1,6.14-10.7,36.53,36.53,0,0,1,3.9-4.95,46.58,46.58,0,0,1,4.66-4.19,85.74,85.74,0,0,1,7.53-5.32,55.63,55.63,0,0,0-16.85-4.49A52.41,52.41,0,0,0,95.09,138l-.15,0-.31-.9.15-.06a54,54,0,0,1,21-3.4,57.94,57.94,0,0,1,15.61,2.82c-4.56-3.17-10.34-7.34-11.27-7.75-2.37-1-5.28-1.57-7.79-2.39a34,34,0,0,0-9.25-1.2c-3.63-.15-8.1-.64-11.3,1.49-3.84,2.56-5.12,3.84-7.69,9-5.12,0-9,0-14.09,5.12s-9,6.4-9,12.81,1.28,10.25,3.84,11.53c2.56,3.84,0,6.4,1.28,6.4S84.06,186.83,93,190.68s11.53,5.12,14.09,7.69a7.93,7.93,0,0,1,2.56,5.12c5.12-3.84,6.4-2.56,9-2.56s2.56,1.28,6.4,2.56c2.45.82,2.94,3,4.35,4.86,2,2.57,4.33,1.22,7.19.8a9.36,9.36,0,0,1,6.89,1.75C145,212,146,215,148.11,215c2.56,0,3.84-1.28,7.69-2.56s5.12,1.28,19.21,2.56,25.62,1.28,35.87-2.56,6.4-3.84,16.65-3.84,11.53,0,16.65,2.56c-1.28-3.84-5.12-5.12-3.84-7.69S241.62,204.77,246.74,195.8Z"/><path d="M338.09,136.14a14.08,14.08,0,0,1-2.08-5c-.22-1.61.34-2.5,1-3.89,1.28-2.56,3.84-6.4-1.28-11.53s-21.78-11.53-26.9-11.53a24,24,0,0,1-9.36-1.65c-2.49-1.07-4.64-2.85-7.22-3.72-3.08-1-6.41-.55-9.6-.71-13.85-.71-28.94-.29-41.7,6.09-2.2,1.1-5.76,1.78-6.42,4.54a4,4,0,0,0,1.41,4c1.89,1.46,4.53,1.25,6.3,3h0a21,21,0,0,1,2,2.49l0-.37.73,0a22.55,22.55,0,0,1,5.07-7.58,21.52,21.52,0,0,1,8.76-5.2l.29-.09.33.86-.27.13a19.91,19.91,0,0,0-7.43,5.8,19.58,19.58,0,0,0-3.18,5.89l4.6-.23a36.23,36.23,0,0,1,14-10.55A30.66,30.66,0,0,1,284.62,105l.31.06-.16.94-.31,0a29.38,29.38,0,0,0-16.74,2.33,33.85,33.85,0,0,0-11.62,8.94c3.52-.15,6.77-.25,9.91-.32h.73c3.09,0,6.59-.1,10,.15,1.5.13,3,.31,4.29.47l.35-.2a49.77,49.77,0,0,1,15.88-5.79,48.86,48.86,0,0,1,16.79-.12l.31.05-.14.94-.31,0A47.69,47.69,0,0,0,284.7,118l2.69.34a74.79,74.79,0,0,1,9.12,2l1.38.36c3.25.88,6.6,1.85,10.25,3,6.5,2,13.27,4.39,20.12,7l.29.11-.32.9-.3-.1c-6.89-2.39-13.7-4.53-20.25-6.36-3.68-1-7-1.9-10.26-2.66l-1.35-.31a73.32,73.32,0,0,0-9-1.66l-1.48-.14a54.19,54.19,0,0,0,22.09,12.78l.3.09-.25.91-.3-.08a55.52,55.52,0,0,1-25.25-14c-1.8-.18-3.73-.36-5.62-.47-3.3-.14-6.83,0-9.95.16l-.55,0c-4,.2-8.14.47-13.12.86a44.6,44.6,0,0,0,8.78,12.18,45.43,45.43,0,0,0,14,9.35l.29.12-.36.88-.29-.11a46.52,46.52,0,0,1-24.77-22.23l-5.66.48-.49,0-.15-2.05-2.06-1s-2.56-1.28-11.53,2.56-15.37,2.56-14.09,7.69,11.53,10.25,20.5,12.81,17.93,5.12,24.34,5.12S280.69,149,292.22,149s29.46-5.12,34.59-6.41a29.7,29.7,0,0,0,6.54-2.76c2.82-1.48,4.39-.05,7.18,1.25C340.86,139.24,338.94,137.61,338.09,136.14Z"/><path d="M382.52,153.53c0,4.77-7.48,8.79-11.53,10.25a23.08,23.08,0,0,1-9,1.28c-8.76-.42-20.5-5.56-20.5-11.53,0-6.37,9.18-11.53,20.5-11.53C371.65,142,382.58,147.72,382.52,153.53Z"/><ellipse cx="381.24" cy="165.06" rx="10.25" ry="7.69"/><path d="M90.71,91.64c-2.49-1.65-5.68-2.1-8.78-2A10.82,10.82,0,0,0,84,85.91c1.21-3.82-4.05-9-7-10.44-4.77-2.35-10.8-3-16.6-3-2.52,0-5,.1-7.3.24A4.45,4.45,0,0,1,54.6,78c-2.05-5.13-9.85-3.69-12.87-2.91-6.64,3-11.24,11-4.19,16.8,5.43,4.43,13.65,3.57,20.19,4a59.93,59.93,0,0,0,10-.18,4.14,4.14,0,0,0,0,1.13c.8,6,11.65,5.56,15.72,4.88,2.89-.48,6.64-1.08,8.47-3.69A4.3,4.3,0,0,0,90.71,91.64Z"/><rect class="cls-1" width="500" height="500"/></g></g></svg>