<svg xmlns="http://www.w3.org/2000/svg" xmlns:xlink="http://www.w3.org/1999/xlink" viewBox="0 0 1280 1024"><defs><style>.cls-1{fill:none;}.cls-2{clip-path:url(#clip-path);}.cls-3{fill:#fff;}</style><clipPath id="clip-path"><rect class="cls-1" y="798" width="1280" height="228.5"/></clipPath></defs><title>アートボード 1 のコピー 5</title><g id="レイヤー_3" data-name="レイヤー 3"><g class="cls-2"><image width="2048" height="1365" transform="translate(-100 225)" xlink:href="../../水彩画像/paint_00016.jpg"/></g></g><g id="レイヤー_1" data-name="レイヤー 1"><path class="cls-3" d="M1130.13,876.11a46.13,46.13,0,0,0-90-13.11H987.91a46.13,46.13,0,0,0-90,13.11c-37.76,24-67.87,78.8-81.29,147.89h394.83C1198,954.91,1167.89,900.07,1130.13,876.11Zm-110.91,46.32c2.52-.27,5.48,8,5.76,10.51a4.58,4.58,0,1,1-9.11,1C1015.58,931.42,1016.7,922.7,1019.21,922.43ZM1003,932.94c.27-2.52,3.24-10.79,5.76-10.51s3.63,9,3.35,11.51a4.58,4.58,0,1,1-9.11-1ZM897.85,884.35h0c0-25.38,20.77-7.15,46.15-7.15a64.56,64.56,0,0,0,10.75-1A14,14,0,1,0,975,871.54c9.28-1.85,15.12-.66,15.12,12.81h0a32.7,32.7,0,0,1-32.6,32.6h-27.1A32.7,32.7,0,0,1,897.85,884.35ZM1014,987l-83,5.08,72.89-28.28a26.42,26.42,0,0,1,20.4.54L1101,992.08Zm116.15-102.65a32.7,32.7,0,0,1-32.6,32.6h-27.1a32.7,32.7,0,0,1-32.6-32.6h0c0-25.38,20.77-7.15,46.15-7.15a72,72,0,0,0,15.29-1.85,14,14,0,1,0,18.94-4.32c7.4-.87,11.93,1.48,11.93,13.33Z"/><path class="cls-3" d="M1129.27,894.27c.46-1.42-1.37,3.92-.43.88a41.93,41.93,0,0,1-4,8.77c-.19.06,0-.46-.1-.48s-.2.1-.51.46-.76,1-1.61,1.91c-2.21,2.49-2.34,2.66-2.26,2.93s.08.23-.14.59a6.71,6.71,0,0,1-.57.76c-.14.17-.31.37-.51.58l-.75.68.81-.67.75-.74,1.48-1.48a26.86,26.86,0,0,1-7,6.75c-.86.54-1.77,1-2.68,1.57s-1.92.88-2.88,1.33l-.73.31-.74.25-1.47.48a24.28,24.28,0,0,1-2.87.78,19.23,19.23,0,0,1-2.12,0c-.7-.06-1.4-.14-2.1-.23-1.43-.15-2.62-.47-4-.7a36.21,36.21,0,0,0-8.87-.7c.37-.12,2-.39,1.69-.8a14.33,14.33,0,0,0-4.7,0c-3.52.83,1,1.2-.34,1.86a31.16,31.16,0,0,1-9.83.27l-2.57-.84-2.64-.9c-1.84.63-4.21.14-6.81-.85a54.5,54.5,0,0,1-8.48-4.43,3.36,3.36,0,0,0-.57-.55c-.25-.24-.56-.5-.91-.79-.7-.58-1.61-1.2-2.39-2a16.94,16.94,0,0,1-3.39-3.75c-2-2.63.46-1.17-.89-3.4-1.11-2-.64-1.33-.2-.69a2.43,2.43,0,0,0,.5.61s0-.08-.14-.28l-.55-1c.65,1,1.06,1.58,1.29,2a3.78,3.78,0,0,1,.34,1c.15.63.42,1.49,2.84,3.78l-.13-.33c.56.4,1.17.92,1.81,1.48s1.39,1.06,2.08,1.6a13.36,13.36,0,0,0,2.08,1.31,4.87,4.87,0,0,0,1.74.67c3.16,1.5,3.1,1.58,2.53,1.72a3.42,3.42,0,0,0-.8.16c-.13.1,0,.36.77.79a22.66,22.66,0,0,1,2.46.52c1.07.15,2.27.36,3.43.47a24.68,24.68,0,0,0,3.11-.05c.84-.16,1.39-.38,1.48-.65h-1.34c-.45,0-.89-.09-1.33-.13a21.82,21.82,0,0,1-2.66-.37c.86.16.24-.18.61-.19a8.56,8.56,0,0,0,3.57.35,31.78,31.78,0,0,0,4.17-.91c2.68-.73,4.52-1.14,3.09.74-.74.24-2.73.19-3.31.59.29.79,4.13.31,7,.35,3-.94,6.37-2.63,11-2.08,1.61.26.66.81,2.27,1.07a34.53,34.53,0,0,1,5.59-.16c1.35,0,2.43.2,3.55.27l1.73,0h1c.33,0,.67-.08,1-.13a20.54,20.54,0,0,0,2.42-.48,31.24,31.24,0,0,0,3-1.08,22.55,22.55,0,0,0,8.63-4.67c.64-.57,1.34-1.08,1.92-1.71l1.78-1.82a40.56,40.56,0,0,0,3-3.87c-.36.33.21-.52.83-1.67a34.11,34.11,0,0,0,1.53-3.18,24.17,24.17,0,0,0,1-2.62,25.5,25.5,0,0,0,.89-3.91c-.23,1.45,0,.58-.2,1.59.26-1.38.38-2.5.53-3.37s.11-1.55.17-2.05a7.77,7.77,0,0,1,.22-1.49c-.1,2.18,0,3.4-.23,4.69-.08.65-.12,1.33-.26,2.16Z"/><path class="cls-3" d="M1037.44,889.52c.41.51,0-1.87,0-3.79,0-.48,0-.92,0-1.29a4,4,0,0,1,.09-.78c.1-.28.15,0,.39,1.25,0-1.71.1-2.95.17-4,0-.53,0-1,.09-1.48s0-.93.1-1.42c-.93,3.87,0-1-.66,1.07a13.93,13.93,0,0,1,1.29-4.76,8,8,0,0,1,3.63-3.71,12.06,12.06,0,0,1,5-1.12,27.77,27.77,0,0,1,4.78.29c3.09.42,6,1.09,8.92,1.75s5.71,1.35,8.51,1.93a31.61,31.61,0,0,0,12,1.83,32.65,32.65,0,0,0,5.8-.85c1-.23,1.91-.49,2.85-.78,1.56-.41,3.29-.86,5.17-1.43,4.44-.72,4.5-.21,3.4.61s-3.16,1.9-4.09,2.6q1.75-.31,3.5-.66l1.74-.36c.12,0,.34-.09.38-.06l-.11.27a3.37,3.37,0,0,0-.15.55l-.16.28,0-.19a.6.6,0,0,1-.11-.33,1.67,1.67,0,0,1,0-.18,5.17,5.17,0,0,0-.5.17l-2,.74-3.43,1.2c-.54.83,1.73.48,2,.92l.36-.12.18-.06c.08,0,0,0,0,.06s-.12.27-.18.42l-.63.36-.23.12-.1,0,0,0-.11.07a11.79,11.79,0,0,1-1.43.74,4,4,0,0,1-2,.27l-.61-.05-.18,0h-1.14l-3-.07a49.21,49.21,0,0,0-5.49,0c3.86.05,3.55-.3,2.7-.6s-2.21-.76-.62-1c-.78-.07-1.56-.1-2.34-.19a26.14,26.14,0,0,0,4.54-.45c1-.16,2-.35,3.18-.57l3.88-.73c-2.11.26-3.84.42-5.68.53s-3.64.13-5.45.12a95.4,95.4,0,0,1-10.72-.86c-7-.9-13.68-2.49-19.57-3.17.36-.07,1.31-.06.28-.44a11.29,11.29,0,0,0-5.1,0,9.23,9.23,0,0,0-1.62.58c-.41.25-.8.41-1.08.63l.3-.19.35-.15a4.6,4.6,0,0,1,.72-.29,4.25,4.25,0,0,0-3.49,1.62,11,11,0,0,0-1.81,4.25,20.69,20.69,0,0,0-.69,2.3l-.25,1.17c-.06.4-.11.82-.16,1.26a17.65,17.65,0,0,0-.07,2.92,20.65,20.65,0,0,0,.46,3.79l-.25-.16a16.47,16.47,0,0,0,.44,2.36,18.29,18.29,0,0,0,.61,2.32c-.44-1.11-.36-.62-.32-.37a4.65,4.65,0,0,1-.38-1.4c-.19-.11-.27.48-.18,1.43a21.94,21.94,0,0,0,.88,3.56c-.38-.79-.59-1.65-.84-2.21l.32,1a9.17,9.17,0,0,0,.49,1.31c.4.91.78,1.93,1.17,2.73.8,1.58,1.19,2.54,0,.9a20.52,20.52,0,0,1-2.42-6.09l-.29-1.15-.24-1.29C1038,892.11,1037.67,891,1037.44,889.52Z"/><path class="cls-3" d="M1053.71,911.06a5.43,5.43,0,0,1-1.37-1c-.06-.1.19,0,.52.2.7.32,1.81.77,1.46.39.59.29,1.16.63,1.77.88l1.83.72c0,.21-1,0-2-.36A13.82,13.82,0,0,0,1053.71,911.06Z"/><path class="cls-3" d="M1106.19,891.87c0,.18.11.36.32.55a2.69,2.69,0,0,0,.87.51,15.91,15.91,0,0,0,2.21.69,9.27,9.27,0,0,0,2.93-.72c.85-.31,1.79-.49,3.47-1.08-.4.68-.44,1.08-.11,1.29a1.41,1.41,0,0,0,.73.16,6.75,6.75,0,0,0,1.1-.2,13.43,13.43,0,0,0,5-3.31,13.83,13.83,0,0,1-2.6,4,7.81,7.81,0,0,1-5.21,2.54c.13-.33-.62-.32-1.58-.33-.49,0-1,0-1.53-.07a9.52,9.52,0,0,1-1.38-.17c-1.23.42-.84,1.16-1.41,1.77a2.68,2.68,0,0,1-2.12.51,11.13,11.13,0,0,1-5.77-2.2,21.77,21.77,0,0,1-3.14-3.47,7.13,7.13,0,0,1-.92-1.81c-.12-.5-.07-.82.23-.87a5.6,5.6,0,0,0-1.05-1.95,2.46,2.46,0,0,1-.36-2.3l.36-.86a14.7,14.7,0,0,0,2.94,6.17,1.89,1.89,0,0,0,.47,1.36c-.07-.76,1.36.48,2.72.93s2.32.45,1.33-1.16a11.72,11.72,0,0,1-3.84-6.21c0-.46.15-.67.28-.66s.3.2.53.5c.39.62,1,1.65,1.64,2.62a6.56,6.56,0,0,0,.41,1.1,4.3,4.3,0,0,0,.42.8,3.48,3.48,0,0,0,.81,1A5.22,5.22,0,0,0,1106.19,891.87Z"/><path class="cls-3" d="M1101.47,873.71l.29-.37.13-.18c0-.06.1-.12.06-.13s.07,0,.08,0l0,.07s0,.09.05.13a.93.93,0,0,0,.22.25c-.77,1.45-1.61,3.22-2.31,4.89a14.22,14.22,0,0,0-.85,2.42,8.53,8.53,0,0,0-.16,1.14l0,.53c0,.17,0,.25,0,.39,0-.13,0-.22,0-.39v-.53a8.4,8.4,0,0,1,.12-1.12,13.86,13.86,0,0,1,.71-2.34c.59-1.59,1.27-3.2,1.87-4.47A.79.79,0,0,1,1101.47,873.71Z"/><path class="cls-3" d="M1122.3,882.39a6.08,6.08,0,0,1-.16,1.8c-.16.57-.31,1.12-.43,1.73l-1-.14A9.06,9.06,0,0,0,1122.3,882.39Z"/><path class="cls-3" d="M1068.66,878.61c-2.38.61-7.51-1.51-9.37-1.24,1.39.47,1,.08,1.35,0l-2.6-1.16C1061.5,876.58,1064.75,877.86,1068.66,878.61Z"/><path class="cls-3" d="M1117.94,869.65l1.73,0c.52,0,1-.05,1.49,0l1.49.24a9.37,9.37,0,0,1,1.26.32,8.53,8.53,0,0,1,2.67,1.21,7.48,7.48,0,0,1,2.1,2.3,11.29,11.29,0,0,1,1.39,3.83c.23,1.38-.43-1.66-.06.33s.4,2.43.49,3.4v-.77c.1,1.55,0,6.33-.17,3.85a29.84,29.84,0,0,0-.38-5.17,13.07,13.07,0,0,0-1.28-4,7.74,7.74,0,0,0-2.52-2.91l-.86-.49-.94-.39c-.33-.11-.66-.19-1-.3s-.76-.15-1.18-.24a11.77,11.77,0,0,0-1.74-.51c-1,0-2.06.05-3.25.12a2.6,2.6,0,0,0-.09.29l.62.42c.11.14-.25,0,1,1,1.44,1.08,1,.63.43.05-.3-.3-.64-.58-.86-.8s-.31-.3-.14-.24a18,18,0,0,1,3,2.31,15.41,15.41,0,0,1,2.25,2.71c.38.78-.53-.52-.47-.26.68,1.5,1.26,2.68,1.74,3.91a5.49,5.49,0,0,1,.25,3.93,15.12,15.12,0,0,0-.86-4.17,11.28,11.28,0,0,1-3.44,10.89,9.77,9.77,0,0,0,2.4-5.3,12.43,12.43,0,0,0-.38-5,15.59,15.59,0,0,0-2-4.36c-.11-.18-.24-.34-.35-.51l-.09-.13-.13-.18-.38-.5a10.22,10.22,0,0,0-1.83-1.86l-2-1.64-.78-.65a8.18,8.18,0,0,1-.74-.74Z"/><path class="cls-3" d="M1002.07,988.37c1.77-.17-4.94.36-1.16,0-2.63.14-8.09.83-11.4,1.22-.4-.23,2.52-.68-3.43-.37-4,.24-4.22.44-4.35.67s-.16.47-3.69.93l4.85-.49c-2.41.59-6.49,1.27-11,1.88s-9.49,1.12-13.64,1.68l-12.88-.59a82.36,82.36,0,0,0-14.31.25l3.29-.51a19,19,0,0,0,3.13-.72c-.11-.18-1-.17-2.31-.06s-3,.3-4.39.47c-2.62.4-4.5.71-5.76,1a13.92,13.92,0,0,0-2.36.62c-.91.35-.75.6-4.3,1.19l-7.28.85-.48.05h-.16l.09,0,.39-.17.85-.37c.6-.25,1.28-.53,2-.82,3-1.17,7.67-2.79,13.85-4.71l8.74-2.33,3.32-.85,2.84-.7c.26-.53,1.55-1.2,3.3-1.92s4-1.48,6.26-2.25c3.16-1,6.73-2,10.65-3.62,1.74-.08,9.7-3.7,11.4-3.88,3.7-1.41,1.09.74,4.18-.17,5.3-1.86-3.54,1.61,1.75-.26-5.6,2.43-2.16-.23-9.72,2.9h.43c-3,1.53-8.62,3.15-10.55,4.58-4.07,1.65-4.13,1.4-3.68.91s1.41-1.2-.7-.69c-.54.35-1.51.85-2.67,1.43l-3.47,1.73a15,15,0,0,0-2.28,1.34c-.4.33-.35.52.23.55l4.06-1.63c-.63.28.08.2-.08.35a5.61,5.61,0,0,0-2.4,1,1.13,1.13,0,0,0-.45.55c.05.13.33.2.61.24.58.08,1.41,0,1.09.11-.16,0-.61.13-1.47.27s-2.09.33-3.63.52c-.43,0,.94-.53.17-.58a12.92,12.92,0,0,0-3.47.93c-1.12.44-2,.91-3.34,1.4a8.52,8.52,0,0,0,.94,0l.29,0h.24l.18,0,1.41-.24,4.9-.88,3.06-.57c.67-.11,1-.14,1.08-.05s-.39.26-.76.43-.72.36-.49.39a33.25,33.25,0,0,1,3.5-.73,7.66,7.66,0,0,1,1.09,0c.72,0,1.45.09,2.16.15a68.81,68.81,0,0,0,11.86.08,114.57,114.57,0,0,0,12.25,0c4.21-.15,8.43-.29,12.22-.36-1.17-.16,5-.36,6.56-.44,1.08,0,5.26-.17,8.27-.39-1.78.11-.69.09-1.93.2,6.79-.49,8-.41,8.42-.35C1008.77,987.68,1008.24,987.86,1002.07,988.37Z"/><path class="cls-3" d="M994,966.73c-1,1.06,10.78-4.08,5.41-1.16,3.93-1.37,5.6-2.24,7.82-3-4.69,1.08,1.09-.48-1.49-.06a27.57,27.57,0,0,1,19.14.51l-.1,0c8.21,2.58,16.16,5.23,23.9,8a84.57,84.57,0,0,0,14.19,5.33c2.37.66,4.76,1.24,7.19,1.77l3.66.76.23,0,.12,0,.19.05.78.21,1.6.43,3.37.91c5,2.06,4.81,2.51,3.29,2.56-.76,0-1.85-.05-2.87-.11s-2-.11-2.67-.08l8.39,3.06q-3-.74-5.47-1.31c-1.64-.38-3.07-.7-4.41-1-.93.43,1.7,1.4,1.86,2l1.8.43c-4.95-.12-5.54-.2-7.23-1l-.67-.34-1.54-.73c-1.07-.5-2.14-1-3.2-1.47a36.51,36.51,0,0,0-6-2.18c8.48,2.94-.94-1.49,2.83-.78l-2.6-1.07c1.18.41,3,.83,5.32,1.39,1.15.28,2.43.59,3.8,1l2.12.6c.73.21,1.61.49,2.47.77l-3.37-1.27-3.16-1.15q-3.16-1.13-6.32-2.19c-4.21-1.41-8.39-2.74-12.5-4-8.21-2.5-16.08-4.74-23.15-6.93.45,0,1.59.26.4-.37-1.14-.45-2.19-.78-3.16-1.06l-.07,0a21.75,21.75,0,0,0-7-1c.72,0,1.44.11,2.16.19a14,14,0,0,0-5.62-.91,28,28,0,0,0-6.13.81,22.62,22.62,0,0,0-2.88.53c-1,.25-1.92.53-3,.86-2.08.65-4.47,1.52-7.86,2.9l.15-.3-5.57,2c1.36-.56.76-.43.46-.36a11,11,0,0,1,1.66-.63c.23-.45-2.77.23-5.92,1.21,1-.35,2-.7,2.63-1-2.54.87-11.35,3.94-7.13,2C987.21,968.74,987.33,969.46,994,966.73Z"/><path class="cls-3" d="M963.13,980.71c5.31-2-1.36.94-.08.78l-4.62,2.11C958.13,983.25,962.77,981.19,963.13,980.71Z"/><path class="cls-3" d="M1113.65,996.66a59.09,59.09,0,0,0-7.32-.9c-2.49-.18-5.11-.32-7.42-.55-1.44,0-2.55.11-3.64.18s-2,.11-3.29.11a119.86,119.86,0,0,1-12.4-.84c1.85-.3,1.66-.67.7-1a32.56,32.56,0,0,0-4.72-1.12l-3-.54-1.48-.26-1.05-.24c-1.39-.32-2.75-.63-3.79-.95,1.46,0,3.58-.17,5.84-.21,1.11,0,2.21,0,3.38.1.59,0,1.19.12,1.84.2l1,.15,1.21.23a10.88,10.88,0,0,0,3.65.89c1.93.3,4.35.59,6.07.78.23-.23-.66-.58-1.77-1l-1.65-.57c-.4-.14-.79-.28-1.11-.42-.65-.27-1-.51-.89-.69s.72-.29,2.18-.3c1.44.19,2.53.22,3.86.32,1.11.14.31-.1.7-.09a15.06,15.06,0,0,1,2.43.34c.39,0-1.47-.49-2.88-.82s-2.42-.59-1.11-.55h1.22l4.9,1.44,2.64.79,1.36.41.69.21.35.11.18.05.09,0h0c-1.15-.18-3.33-.52-3.65-.5.66.11,1.18.21,1.58.3s.58.16,1.09.32a9.83,9.83,0,0,1,1.82.79,10.62,10.62,0,0,0,2.52.93,73.7,73.7,0,0,0,8,1.4l4.52.27,2.25.13,1.12.07.56,0c.09,0,0,0,0,0l-.15,0-.29-.1-9.3-3.13c-.73-.52,1.26-.17,4.89.78s8.89,2.47,13.57,3.94l.54.26.13.06.06,0s.09,0,0,0l-.72-.08-2.59-.27-4-.41c-2.18-.22-3.54-.33-4.5-.38A19.39,19.39,0,0,0,1113.65,996.66Z"/><path class="cls-3" d="M1086.4,985.38a1.39,1.39,0,0,0,0-.33l6.86,2.26,7.76,2.5Z"/><path class="cls-3" d="M1056.34,992.15c1.9,0,3.52.52,5.41.52l.17,1.05C1060.06,993.17,1058.2,992.64,1056.34,992.15Z"/><path class="cls-3" d="M1047,975.94c-2.77.12-8.63-2.85-10.9-2.89,1.63.7,1.14.24,1.6.25l-3-1.61C1038.76,972.64,1042.53,974.42,1047,975.94Z"/><path class="cls-3" d="M1037.3,989.54c-3.22-.36-5.14-.47-7.2-.65s-4.25-.4-8-.79c-1.63-.19,2,.08-.35-.16s-2.92-.19-4.08-.25l.91.12c-1.81-.25-7.59-.66-4.58-.63,4.72.3,8.17.47,11.35.59s6.1.16,9.74.56l1.25.48,4.39.26a3.64,3.64,0,0,0,1.63.28c3.06,0-2.23-.45-2-.66q4.24.13,8.5.13c1,.1-.87.16-.57.25a24.25,24.25,0,0,0,5.21.15,13.13,13.13,0,0,1,4.78.36q-2.64.11-5.27.15a147,147,0,0,1,15.44,2.23c-6.31-.68-11.25-.51-16-.74A118.83,118.83,0,0,1,1037.3,989.54Z"/><path class="cls-3" d="M899.05,874.55c-.17.35-.13.28,0,0a6,6,0,0,1,.62-1c.53-.7.92-1.19,0,.17a8,8,0,0,1,3.68-3,14.1,14.1,0,0,1,5.11-.89c.16.12-.39.25-.35.36s.69.14,3.11.55c6.42,1.24,1-.58,6.77.32-1.31-.26-2.62-.52-4-.72a62.69,62.69,0,0,1,9.13,1c3.65.58,7.56,1.3,10.83,1.51,2.37.66,4.59,1.54,7.09,2.17.62.18,1.26.29,1.92.41a17.73,17.73,0,0,0,2,.27,19.47,19.47,0,0,0,2.19,0c.39,0,.73,0,1.19-.08s1-.11,1.57-.18c-.25.08-.9.24-1.41.42s-.74.36-.59.55a14.06,14.06,0,0,0,5.14-.54c2.32-.76,2.53-1.08,2.12-1.29s-1.31-.35-.06-.85l2.85-.65a1.2,1.2,0,0,1,.35,0l.41,0h1.28c-1,2-2.34,4.41-3.33,6.38a9.15,9.15,0,0,0-.53,1.43,7.94,7.94,0,0,0-.31,1.33c-.09.44-.13.9-.19,1.4a10.31,10.31,0,0,0-.48,4.59c1.36,1.07,2.22,2.69,3.9,4.38a11.91,11.91,0,0,0,3.13,2.23,10,10,0,0,0,4.33,1c.6.33,2.66.31,4.55-.37a29.76,29.76,0,0,0,4.18-2c1.19-1,1.45-.94,1.72-.78s.53.41,1.51-.56c.78-.92,1-1.26,1-1.23a2.84,2.84,0,0,1-.41.76c-.47.7-.91,1.46.59-.52a7.26,7.26,0,0,1-1.66,2.06,2.74,2.74,0,0,1-1,.55,9,9,0,0,0-1.3.65c-.32.17-.67.44-1.18.71l-.82.48-1,.53h.37a11.59,11.59,0,0,1-5,1.43c-.46,0-.91.06-1.35.05l-1.25,0a15.55,15.55,0,0,0-2,0,7.76,7.76,0,0,1-3-1.19c-.32-.26-.13-.32.16-.34.6,0,1.52.06.1-.95a12.27,12.27,0,0,1-5-3.1c-1.72-1.66-2.89-3.64-3.45-3.62a15.39,15.39,0,0,0,3.38,5.08c-.71-.69-.33,0-.68-.25a15.66,15.66,0,0,0-1.09-1.55c-.4-.59-.91-1.2-1.36-1.89a20,20,0,0,1-2.42-4.53,14.46,14.46,0,0,1-.62-2.16,6.74,6.74,0,0,1-.11-.89c0-.13,0-.25,0-.35a.15.15,0,0,1,0-.06c0-.08.16-.1.38-.14a1.83,1.83,0,0,1,1,.15.58.58,0,0,1,.05.22l0,.48c0,.34.06.72.12,1.09s.11.73.18,1a2.21,2.21,0,0,0,.33.7c.19-.11.24-.44.26-.92s0-1.12,0-1.85l0-.55,0-.4c0-.26.05-.53.1-.8a7.28,7.28,0,0,1,.42-1.56c0-.07,0-.13,0-.2a1,1,0,0,0-.16-.27l-.09-.07s-.14.06-.21.09l-.27.14c-.7.36-1.27.69-1.72.95a7.66,7.66,0,0,1-1,.55l-.21.06-.74.06a13.32,13.32,0,0,1-1.68,0c-1.69-.21-.71-.78-2.38-1a21.54,21.54,0,0,1-9.51-1.09,84.6,84.6,0,0,0-9.41-2.73,73.6,73.6,0,0,0-9.47-3.15,34.52,34.52,0,0,0-9.74-1.56c.48.09-.55.13-1.77.47a6.92,6.92,0,0,0-3,1.66,3.87,3.87,0,0,0-.33.29l-.41.49a7.91,7.91,0,0,0-.92,1.43,13.54,13.54,0,0,0-1.13,3.79c.24-1.43,0-.57.25-1.57a15.15,15.15,0,0,0-.36,1.85,13.9,13.9,0,0,0-.19,1.49c-.09.88-.15,1.53-.17,2a7.47,7.47,0,0,1-.18,1.48c0-2.16,0-3.35.15-4.64a17.43,17.43,0,0,1,.32-2.14A11.52,11.52,0,0,1,899.05,874.55Z"/><path class="cls-3" d="M979.38,878.58c.47.4-.21-1.77-1.26-3.26l-.37-.53a2.52,2.52,0,0,0-.22-.28l-.22-.27c-.25-.34-.5-.59-.58-.72s.43,0,1.33.88a11.27,11.27,0,0,0-2.77-2.7l-.11-.08,0,0h.05l.21-.05.41-.11,1.67-.46c-2.17.21-2,.21-1.53.06s1.23-.31-.17-.22c.9-.19,1.82-.39,2.79-.56l1.35-.17,1.21-.07a10.7,10.7,0,0,1,4.94.92,8.65,8.65,0,0,1,3.74,3.64,13.88,13.88,0,0,1,1,2.31,17.69,17.69,0,0,1,.62,2.35,32.24,32.24,0,0,1,.53,4.66c.06.77,0,1.55,0,2.33a18.24,18.24,0,0,1-.13,2.32l-.31,2.3a22.57,22.57,0,0,1-.5,2.26,31.72,31.72,0,0,1-1.41,4.38,76.43,76.43,0,0,1-7.27,10.76,46.78,46.78,0,0,1-9.51,9.06,5.59,5.59,0,0,1-2.64.55c-.48-.06-.59-.3-.52-.63.14-.68,1-1.6,1.32-2.36-1,.46-2,.77-3,1.16s-2.09.56-3.13.85c1-.5,2-.91,3-1.47s1.88-1.08,2.75-1.72c-.1-.71-2.73.24-4.32.12l-1.58.6c.56-2,3.27-2.52,6.39-3.76a24.18,24.18,0,0,0,2.39-1,15.2,15.2,0,0,0,2.33-1.25c.37-.23.74-.46,1.09-.7s.65-.54,1-.81a8.28,8.28,0,0,0,1.55-1.68c-2.37,2.39-2.07,2.38-1.27,2.13s2-.87,1.12.37L980,907c.28-.25.53-.52.8-.78-.63.78-1.59,1.91-2.86,3.38-.69.66-1.44,1.45-2.33,2.19l-1.46,1.08-.79.55c-.27.17-.57.32-.86.48A29.43,29.43,0,0,0,987,898.17a32.3,32.3,0,0,0,1.38-18.91c.18.29.51,1.16.51.11a9.5,9.5,0,0,0-.74-2.66c-.2-.35-.39-.68-.58-1a5.49,5.49,0,0,0-.64-.75,5.63,5.63,0,0,0-2.33-1.37,5.31,5.31,0,0,1,1.23.65,4.37,4.37,0,0,0-3.38-1.83l-1.22-.08-1.26,0c-.19,0-.47,0-.58.06a.55.55,0,0,1-.2.06,3.17,3.17,0,0,0-.39.08,8.6,8.6,0,0,0-.94-.07h-.28c-.06,0,0,0,0,.07l.18.21c.13.15.28.33.46.56l.28.38.08.1.09.14.29.42a17.23,17.23,0,0,1,2.15,4.45l-.28-.14a14.16,14.16,0,0,1,.47,4.92c0-1.23-.1-.72-.15-.47-.05-.35,0-.6,0-1.46-.36-.27-.48,2.25-1.39,4.62a9.88,9.88,0,0,0,.41-2.12,14.84,14.84,0,0,1-.52,2.19,10.85,10.85,0,0,1-1.1,2.41c-.87,1.32-1.48,1.91-.71.4a15.33,15.33,0,0,0,1.4-3.05l.21-.6.15-.56a8.6,8.6,0,0,0,.25-1,9,9,0,0,0,.2-2.23A9.44,9.44,0,0,0,979.38,878.58Z"/><path class="cls-3" d="M966.19,898l.8.06h.56a2.71,2.71,0,0,1,.53,0c.12,0-.17.1-.59.19-.84.18-2.21.21-1.66.4a15.89,15.89,0,0,1-4.61-.74c0-.22,1.13.05,2.32.15A6.76,6.76,0,0,0,966.19,898Z"/><path class="cls-3" d="M943.27,920.87c-.4-.69-3.38-.42-5.06-.64-1.67.23-2.7.53-3.92.69a13.93,13.93,0,0,1-2.07.13,18.34,18.34,0,0,1-3.1-.29c2.1-.72,1-1.4-1-2-1-.26-2.16-.7-3.29-1.12a15.08,15.08,0,0,1-3-1.39c.6.1,1.32.22,2.13.29s1.72,0,2.65.09a24.73,24.73,0,0,1,5.76.5c-.45.54,2.93.91,4.61,1.11,2.59-1-2.06-2.92,8.47-3.44,1.93.32,6.71-.23,6.4.93,1.34.41,2.59-1,4.07-.08l.75.48-6.56.73a2,2,0,0,0-1.33-.41c1.24.81-7.11,1.68-2.85,3.08h9c2.18.51-.9,1.24-4.13,1.38C946.11,920.06,946.36,920.23,943.27,920.87Z"/><path class="cls-3" d="M965.93,917.2l.58.17-2,.6-2,.41a30.09,30.09,0,0,1-4.15.52,30.18,30.18,0,0,0,3.87-.64l1.89-.46C964.71,917.66,965.31,917.4,965.93,917.2Z"/><path class="cls-3" d="M913.32,915.15c.73.4,1.43.76,2.09,1.18a7.85,7.85,0,0,0,2.16,1l-.18,1c-.36-.26-.73-.49-1.08-.76l-1-.84C914.63,916.25,913.94,915.75,913.32,915.15Z"/><path class="cls-3" d="M984.72,895.51c-.19-1.09.4-2.6.71-4.17l.28-1.14c.06-.38.1-.74.13-1.08a4.8,4.8,0,0,0-.06-1.66c-.3,1.22,0,.83.13,1.16l.43-1.18c.13-.4.21-.81.31-1.22C986.93,889.33,986,892.33,984.72,895.51Z"/><path class="cls-3" d="M902.32,903c-.62-1.22-1.2-2.14-1.6-3l-1.09-2.43c-.31-.81-.56-1.67-.88-2.68s-.5-2.27-.83-3.79c-.06-.68,0-.27.08.07s.15.59,0-.38c-.2-2-.38-2.39-.47-3.35a5.29,5.29,0,0,0,0,.76c-.06-.75,0-2.33,0-3.4s.09-1.63.16-.41l.13,2.72,0,.63.09.6.19,1.15a26.47,26.47,0,0,0,1,4.05,15.45,15.45,0,0,0,.66,1.8l.71,1.78c.29.58.58,1.17.86,1.79l.43,1,.51,1,.19,1.11a27.63,27.63,0,0,0,2.09,3c.05.12,0,.18.1.33a2.85,2.85,0,0,0,.62.84c1.8,1.78-1-1.59-.62-1.62a25.89,25.89,0,0,0,2.37,2.52,34.31,34.31,0,0,0,2.65,2.2c.6.6-.65-.31-.52-.09a7.78,7.78,0,0,0,1.73,1.46,12.44,12.44,0,0,0,1.73,1,16.7,16.7,0,0,1,1.71.83,9.34,9.34,0,0,1,.81.54,5.84,5.84,0,0,1,.82.64l-1-.35-1-.45-2-1c1.1.71,2.08,1.46,3.08,2.06S917,915,918,915.48s1.86,1,2.77,1.39l2.72,1.13c-5.22-1.48-9.21-3-12.67-5.27A24.43,24.43,0,0,1,902.32,903Z"/><path class="cls-3" d="M1002.67,931.47c0,.21.08-.57.13-.11a2,2,0,0,0,0-.66c0-.27-.13-.56-.15-.77.26,0,.41.43.69-.19.14-.43,0-.52-.23-.61a.71.71,0,0,1-.51-.65c0,.2,0,.4,0,.6a3.94,3.94,0,0,1-.67-1.66c-.09-.63-.06-1.29-.13-1.9a3.86,3.86,0,0,1,.79-.3,5.72,5.72,0,0,1,1-.38c.67-.21,1.2-.35,1.44-.92a1.19,1.19,0,0,0,.38.78c.36.1.39-.29.41-.57-.15-1.09-.81-.8-1.07-1.47.11-.73.32-1.6,1.2-1.52.47.28.89.66,1.21.82,0-.91.31-.87.68-.89a1.39,1.39,0,0,1,.6,0,1.4,1.4,0,0,0,.34.16.54.54,0,0,1,.33.09,1.39,1.39,0,0,0,.37.1.9.9,0,0,0,.23.44c.1.12.23.11.35.21.21.28.47.26.44.74.13.23,0,.66-.11,1.23-.21.81-.45,1.72-.52,2.18s-.1.5-.15.58-.1.17-.16.56.78-2.75.29-3l-.05.46c-.13.22-.2,0-.31-.27s-.26-.41-.34.11l0,.17a1.62,1.62,0,0,1-.36-1.3c0-.3,0-.63,0-1a.84.84,0,0,0,0-.3.69.69,0,0,0-.14-.23,2.37,2.37,0,0,1-.3.44,4.6,4.6,0,0,0-.28.83,3.54,3.54,0,0,0,.12,2,1.78,1.78,0,0,1,.36-.28c-.05.08.07.4.08.56-.32-.72-.23.68,0,1.44s.41,1.12-.57-.9c-.09-.28.06-.25-.1-.76-.43-1-.48-.19-.67-.05A10.74,10.74,0,0,0,1008,927c.24.45.4.67.16.57s-.61-.49-.85-.54c.11.29.14.41,0,.45a1.63,1.63,0,0,1-.54.16,1.39,1.39,0,0,0-1.24.84,2,2,0,0,0-1.17,1c-.26.41-.51.82-.79,1.18.26-.06-.11.55-.16.72a1.78,1.78,0,0,0-.33.88c0-.2,0-.09,0-.23-.09.77-.23.89-.33.93C1002.76,932.29,1002.63,932.2,1002.67,931.47Z"/><path class="cls-3" d="M1011.74,925.23c-.45.36.34,1.56-.45,1.35,0,.56.16.62.42.82.08-.67.16.09.37-.36a3.73,3.73,0,0,1,.17.36l.08.19c0,.07.17.1.16.18l.37.61c.24.4.46.81.65,1.22a6.47,6.47,0,0,1,.67,2.53,1.78,1.78,0,0,0-.21,2,18.73,18.73,0,0,1,1,3.07c-.49.47-1,.26-1.42-.09s-.88-.85-1.3-1.17a5,5,0,0,1-.58.83,5.16,5.16,0,0,0-.55-1.43c-.64-.36-.86-.13-1.4-.35l.06.23c-1.34-1.19-1.28-1.13-.85-1.12s1.15-.14.75-.42c0,.24.29.29.63.29s.74-.11,1,.11a2.4,2.4,0,0,0,.16-.25c0,.21.86.91.71,1.79a2.59,2.59,0,0,0,.41-1.62,4.38,4.38,0,0,0-.46-1.52c-.47-.95-1.14-1.78-1.58-2.52.13,0,.31.13.48,0,0-.59-1-.77-1.24-1l.25.21a.57.57,0,0,0,.14-.68l-.06-.17c-.07,0-.07,0-.1-.06a.55.55,0,0,1-.14-.08c.35-.29.69-.92.32-1.11l.27-.33c0-.21,0-.43,0-.66.08,0,.17-.18.21-.29s0,0,0,.18a3,3,0,0,0,.27-.49,3.18,3.18,0,0,0,.14-.46,3.91,3.91,0,0,0,.1-1.14,2.42,2.42,0,0,0,.13.41c0-.3-.15-.71-.16-1.36q0-.2,0-.42a1.61,1.61,0,0,1,0-.28c0-.14.1-.29.21-.18a7.91,7.91,0,0,1,.19,1.86A2.61,2.61,0,0,0,1011.74,925.23Z"/><path class="cls-3" d="M1009.3,925.16c.22.85-.11.76-.07,1.66,0,0,0,0-.06,0s-.05,0-.08,0a2.37,2.37,0,0,1,.07-.94A3.61,3.61,0,0,0,1009.3,925.16Z"/><path class="cls-3" d="M1009.68,941.67c-.26-.63-.91-.23-1.34-.41-.72.49-1.06,1.29-2.2.49a1.7,1.7,0,0,0,.14-2,5.42,5.42,0,0,1-.63-1.71,3.66,3.66,0,0,0,.82-.31c.29-.1.53-.13.75.38-.13.54.4.95.72,1.11a6.23,6.23,0,0,0,0-1.89,2.77,2.77,0,0,1,.36-1.65c.26.26.34-.39.88.63.35.27-.35-1,.3-.29l.35.34a3.78,3.78,0,0,1-.31,1c-.1-.13-.29-.39-.33-.3a2,2,0,0,1,.15,1.36,1.68,1.68,0,0,0,.53,1.68,6.15,6.15,0,0,0,1.72-.87c.69.12.57,1.15-.13,1.68-.73-.1-1-.17-1.22-.08S1010,941.27,1009.68,941.67Z"/><path class="cls-3" d="M1012.31,937l.31.12a5.8,5.8,0,0,1-.79,1.34A5.52,5.52,0,0,0,1012.31,937Z"/><path class="cls-3" d="M1003.29,939.26c.3.14.36.61.71.71l-.46.93A12.9,12.9,0,0,1,1003.29,939.26Z"/><path class="cls-3" d="M1009,932.36c-1.06-.18-.3-.86-1.06-1-.09.18.17.1.33.12l.44-.38C1009.22,931.47,1008.86,931.92,1009,932.36Z"/><path class="cls-3" d="M1002.42,936c-.05-.48-.1-.74-.15-1a3.79,3.79,0,0,1,.12-1.1c.08-.22.05.25.14-.06a1,1,0,0,0,0-.51l-.06.11c.14-.24.27-.9.39-.54a2.53,2.53,0,0,0,.12,1.31,2.57,2.57,0,0,1,.32,1.07l-.32.31a2.39,2.39,0,0,0,.27.48c0,.06-.15.12,0,.28.34.23.11-.42.33-.5a2.09,2.09,0,0,0,.86.54c0,.11-.22.07-.25.14,0,.3.29.32.52.3s.46-.07.38.39a2.38,2.38,0,0,1-.77,0c.47.63.73,1.45,1.21,2.21-.8-.61-1.62-.67-2.27-1.13a1.81,1.81,0,0,1-.7-.92A3.29,3.29,0,0,1,1002.42,936Z"/><path class="cls-3" d="M1020.84,922.4c-.21-.11.53.38.05.17a3.69,3.69,0,0,0,.62.37,5.73,5.73,0,0,1,.75.36c-.19.19-.6.07-.25.68.53.78.64-.28,1.46.25-.15-.14-.31-.29-.48-.42a3.82,3.82,0,0,1,1.74.62c.55.37,1,.84,1.52,1.2-.14,1-1.66,2.27-1,3a1.24,1.24,0,0,0-.83,0c-.29.29,0,.5.19.63.95.2,1.09-.52,1.78-.56.5.28,1.11.54.7,1.31l-1.33,1.15c.41,0,.61.13.68.28a.42.42,0,0,1,0,.13.22.22,0,0,1,0,.08s-.08,0-.08.06v0a2.32,2.32,0,0,1,0,.39c0,.13-.06.27-.09.41s-.14.27-.18.41a3.36,3.36,0,0,0-.11.85c-.28.05-.31.39-.39.74s-.2.67-.41.65c-.12.22-.29.11-.6-.11a12.54,12.54,0,0,0-1.52-1,.49.49,0,0,1-.41-.3c-.06-.12-.14-.2-.4-.32-.22-.4,2,1.54,1.92.64l-.3-.11c-.19-.24-.06-.35,0-.5s.12-.33-.31-.47c.07-.29.34-.31.7-.24.18,0,.37.08.56.1a.48.48,0,0,0,.44-.13c-.53-.34-1.1-1.25-2.23-1a4.64,4.64,0,0,1,.35.6c-.06-.06-.23,0-.33,0,.37-.3-.62-.54-1.42-.63s-1.25-.19.6-.57c.26,0,.28.27.68.23.75-.25.15-.6.07-1-1-.09-2.75.08-2.42-.63.17-.27.73-.36.9-.64-.65-.39-.4-.79-.15-1.22a1.38,1.38,0,0,0,.2-1.47,1.87,1.87,0,0,0,0-1.51l-.45-1.33c-.1.24-.4-.39-.52-.51a1.23,1.23,0,0,0-.69-.63c.18.09.09,0,.24,0-.74-.32-.94-.29-1-.42a3.3,3.3,0,0,1,.81,0A2.14,2.14,0,0,1,1020.84,922.4Z"/><path class="cls-3" d="M1023.76,937.72c-.12-.66-1.23.74-.88-.49a.46.46,0,0,0-.48.2,3.42,3.42,0,0,1-.31.49c.57,0-.12.18.22.4a5.59,5.59,0,0,1-3.08,1.2,4.34,4.34,0,0,1-3.08-1,3,3,0,0,0-.49-1.1,1.9,1.9,0,0,0-.37-.4,4.25,4.25,0,0,0-.41-.38c-.65-.45-1.62-.86-2.56-1.59.08-.61.64-.79,1.17-.82s1.18,0,1.7,0a4.52,4.52,0,0,1,0-.47,4.47,4.47,0,0,1,0-.51,7,7,0,0,0,.66.41,4.62,4.62,0,0,0,.66.29,2.25,2.25,0,0,0,1-.56,1.68,1.68,0,0,1,.31-.15l-.2-.14a6.71,6.71,0,0,1,1.51,0c.33.06,0,.27-.26.57s-.39.66,0,.6c-.23-.16-.5,0-.8.2s-.6.58-1,.6a2,2,0,0,0,0,.3,3.18,3.18,0,0,0-.77-.23,1.56,1.56,0,0,1-.91-.7,2.72,2.72,0,0,0,2,2.4,3.38,3.38,0,0,0,3.07-.88c-.09.2-.28.46-.25.71.22.08.52-.37.72-.88a9.81,9.81,0,0,0,.41-1.39c0,.19-.1.37-.16.55,0,.38.17.26.28,0s.18-.57.24-.68c.22.76.75,1.49.9.67l.26.57a2.1,2.1,0,0,0,.49-.07c0,.18.14.35.23.43s0,.1-.13.11l.18.3a1.28,1.28,0,0,0,.18.23.73.73,0,0,0,.25.13,1,1,0,0,0,.63,0,1.08,1.08,0,0,0-.25.27c.3-.13,1.22-1.06,1.09-.28C1024.8,937.62,1024.4,937,1023.76,937.72Z"/><path class="cls-3" d="M1023.48,933.23c-.41.22-.5-.22-1-.25a1.46,1.46,0,0,0-.05-.16C1022.95,932.83,1023,933.08,1023.48,933.23Z"/><path class="cls-3" d="M1012.12,929.8c.69,0,.48-.46.74-.69-.38-.56-1.1-.82-.36-1.45,1.55.85,2.46-.17,3.56-.41.06.37,1,1.15,0,1.5a1.29,1.29,0,0,0-1.19.47c.92.49,2.91.17,3.26,1.58-.35.22.14.87-1,.74-.43.15,1,.41,0,.54l-.49.07c-.23-.3-.45-.62-.67-.94.16,0,.48-.06.43-.15-.83.11-1.57-1.17-3-.71a13.55,13.55,0,0,0-.1,1.35c-.53.31-1.23-.21-1.33-.74C1012.87,930.31,1012.7,930.35,1012.12,929.8Z"/><path class="cls-3" d="M1014.49,933.48l-.31.12c-.13-.43-.25-1-.34-1.36C1014,932.6,1014.26,933.11,1014.49,933.48Z"/><path class="cls-3" d="M1014.19,925.58c0,.25-.41.36-.37.62l-1-.21Z"/><path class="cls-3" d="M1020.25,934.09c.51-.48.64-.59.75-.68a2,2,0,0,0,.48-.65l-.28.44a3.16,3.16,0,0,0-.18.4C1020.48,934.39,1020.52,934,1020.25,934.09Z"/><path class="cls-3" d="M1016.38,923.75c.65-.6.57-.87,1.61-1.39.24-.08-.19.21.13.07a3.1,3.1,0,0,0,.5-.32h-.15a3.16,3.16,0,0,1,.65,0c.18,0,.24.07.09.16a1.42,1.42,0,0,0-1.12.78c-.19.33-.23.67-.6.95l-.44,0a3.16,3.16,0,0,0-.21.48c-.07,0-.18,0-.25.11,0,.39.4-.13.59,0a3,3,0,0,0,0,1c-.07.1-.17-.16-.25-.15-.25.16-.15.39,0,.6s.23.42-.22.5a3.74,3.74,0,0,1-.27-.7,4.55,4.55,0,0,1-1.73,1.46c.46-.68.2-1.35.29-1.95a1.47,1.47,0,0,1,.4-.83A4.37,4.37,0,0,1,1016.38,923.75Z"/><path class="cls-3" d="M1114.88,845.23c.93.88.76.7.11,0l-3-2.64c-1.14-.86-2.14-1.6-2.28-1.75a16.11,16.11,0,0,1,2.8,1.92,32,32,0,0,0-2.57-2c-.49-.34-1-.73-1.52-1.06l-1.72-1-1.81-1-2-.89c-.68-.29-1.35-.62-2-.9l-2.16-.72c-.73-.22-1.44-.53-2.19-.68l-2.24-.5a33.47,33.47,0,0,0-4.45-.71,33,33,0,0,0-4.24-.25c-.68,0-1.34-.08-2,0l-1.85.1c-.57-.22,1.25-.55,1.09-.75a6.54,6.54,0,0,0-2.34-.19c-.83,0-1.92.14-3.36.27-.72,0-1.5.25-2.39.39a23.82,23.82,0,0,0-2.91.65l-2,.57c-.62.19-1.18.44-1.72.63a25,25,0,0,0-2.76,1.16l-2,1a15.46,15.46,0,0,0-1.33.81c-1.42.94-1.59,1.22-1.68,1.47s-.1.49-1.13,1.39c-.51.46-1.31,1-2.38,2-.53.49-1.2,1-1.9,1.68s-1.51,1.44-2.38,2.36a44.8,44.8,0,0,1,11.05-8.32,54.23,54.23,0,0,0-10.38,8.53,48.1,48.1,0,0,0-5.16,6.74c-.85,1.22-1.5,2.6-2.26,3.95-.35.69-.64,1.41-1,2.12l-.48,1.07-.7,1.83-.72,1.92-.36,1-.18.48-.09.24s0,.09-.05.11h-.14q-2.3,0-4.66,0l-5.33,0-10.56.07c-7,0-13.88.1-20.14.21l-7-.32-3.55-.19-2.86-.11-1.38-.08-.69,0s-.13,0-.15,0l-.05-.16-.11-.32-1.62-4.9-1.2-3.08-1.46-3-1.73-3a41,41,0,0,0-24.8-17.67c.64.14,2.4.5,3.84.87s2.6.67,2.12.27a23.64,23.64,0,0,0-3.59-1.46l-2.13-.66c-.74-.17-1.5-.32-2.26-.48a37.7,37.7,0,0,0-4.52-.61c-1.45-.12-2.81-.07-4-.1-6.3.67-5.33,1-3.5,1.14s4.59.32,2.31.75a44.09,44.09,0,0,0-14.84,3.46,52.79,52.79,0,0,0-7.55,3.89,19.8,19.8,0,0,0-1.91,1.28l-2,1.37L915,845.06a21.39,21.39,0,0,0-2,1.71,43.06,43.06,0,0,0-11,14q-.27,1.12-.61,2.29c-.15.8-.32,1.63-.5,2.47-.45,1.67-.64,3.5-1,5.4l-.12.72-.05.74-.11,1.5-.16,2-.06.6,0,.3s0,.11,0,.15l-.12.09-1,.73-3.14,2.11-2.92,1.93a120.87,120.87,0,0,0-24,22.9,42.47,42.47,0,0,0-4.49,5.36c-1.91,2.58-4.26,5.67-6.3,9l-3.12,4.81c-1,1.58-1.84,3.13-2.67,4.5-1.62,2.78-3,4.93-3.64,6-2.74,5.24-3.23,5.62-3.63,5.73-.2.06-.37,0-.79.55a19,19,0,0,0-2.17,3.67c-7.28,15.22,4.74-10.7-2.55,4.53,3.71-8.4,4.78-9.5,6-11.38.63-.93,1.35-2,2.61-4.27l2.54-4.22,1.72-2.95c.64-1.09,1.3-2.31,2.15-3.59l-.79.93c1.31-2.16,2.91-4.68,4.63-7.35.82-1.36,1.84-2.64,2.79-4l2.9-4c4-5.15,7.89-9.84,10.09-12.55l3-3.21c.88-.9,1.69-1.61,2.36-2.24,1.34-1.24,2.22-2,2.76-2.47,1.08-.89.83-.46.27.26-1.11,1.46-3.4,4,1.48-.16.33-.34.69-.77,1.16-1.19l1.57-1.4,4-3.46a27.34,27.34,0,0,1,2.36-1.85l2.53-1.87,2.5-1.85.15-.11a1,1,0,0,0,0-.18v-.37l0-.73.06-1.6.06-1.6.21-1.56.4-3,.62-2.74a23.14,23.14,0,0,1,.6-2.44c.47-1.49.83-2.75,1.07-3.69a4.42,4.42,0,0,0,.41-1.68,48.6,48.6,0,0,0-3.47,10c-.35,1.72-.61,3.47-.87,5.2l-.16,2.63-.06.88a1.6,1.6,0,0,1,0,.37l-.3.22.26-.19c.11,0,0-.17.06-.23s0-.26,0-.33,0-.16-.07-.15-.15.13-.16-.17c.11-.81.21-1.89.3-2.94s.37-2.21.55-3.41c.11-.6.16-1.22.32-1.84l.46-1.88.47-2c.15-.66.41-1.3.62-2a52.39,52.39,0,0,1,7.41-14.87,47.92,47.92,0,0,1,4.6-5.36c.74-.72,1.39-1.41,2-1.94s1.24-1,1.73-1.31c2-1.41,2.47-1.29.8,1.09-.52.48-1.34,1.06-2.18,1.83l-2.67,2.51c-.89.88-1.66,1.86-2.35,2.66-.34.41-.64.78-.9,1.12s-.41.67-.54.92a2.59,2.59,0,0,0,.79-.64c.4-.34.9-.82,1.5-1.41s1.24-1.31,2-2l2.65-2.35a52.2,52.2,0,0,1,6.75-4.74,35,35,0,0,1,3.83-2,29.7,29.7,0,0,1,3.88-1.57,46.33,46.33,0,0,1,18-4.23,43.23,43.23,0,0,1,5.41.22c.93.11,1.86.29,2.81.44.47.08,1,.16,1.44.26l1.43.38c1,.28,2,.48,2.92.86l2.94,1.11c1,.45,1.94.93,2.93,1.42s1.92,1.12,2.9,1.7a15.54,15.54,0,0,1,2.52,1.9,6.66,6.66,0,0,1,.87,1,19.12,19.12,0,0,0,3.09,3.11,45.16,45.16,0,0,1,12.78,16.94l.42.95.09.22,0,.13.09.26.33,1,.16.5c0,.12.1.07.17.09h.21l.83,0,6.09.26c8.52.39,17.26.81,35.45.67l4.32.19,1.79.07.83,0c.18.07.17-.17.24-.28l.17-.41.68-1.68a10.37,10.37,0,0,1,.44-1l.51-1c.35-.69.65-1.41,1.05-2.08l1.18-2a49.11,49.11,0,0,1,12.83-13.95,46.4,46.4,0,0,1,17.22-7.71,39.11,39.11,0,0,1,4.56-.73c.76-.07,1.52-.18,2.27-.22l2.26,0a37.23,37.23,0,0,1,4.43.2,30.26,30.26,0,0,1,4.28.61c-.84-.25-.32-.25,1-.09a16,16,0,0,1,2.48.51c1,.27,2.09.48,3.23.88l3.49,1.3c1.15.51,2.26,1.09,3.32,1.6a26.43,26.43,0,0,1,2.78,1.61c.8.5,1.49.91,2,1.24.63.52,1.72,1.39,3.12,2.47.68.57,1.37,1.27,2.15,2l1.19,1.1c.39.4.76.83,1.15,1.26l1.19,1.31.61.67c.19.23.37.48.56.73.73,1,1.52,2,2.24,3l2,3.12c.63,1,1.11,2.12,1.64,3.11a18,18,0,0,0-1.68-3.06,16,16,0,0,1-1.33-1.86l1,1.55.48.75.4.77,1.48,2.88c.42.93.74,1.84,1.09,2.68a20.22,20.22,0,0,1,.87,2.42c.41,1.55.87,2.89,1.09,4.1l.54,3.13a16.63,16.63,0,0,1,.23,2.27l.1,1.55.08,1.55-.29-2.77a20,20,0,0,0-.33-2.46c-.35-1.54-.58-2.93-1-4.19l-1.16-3.51c-.43-1.09-.93-2.11-1.38-3.16a28.34,28.34,0,0,0-1.66-3.15l-.95-1.68-1.19-1.73c-.42-.6-.83-1.24-1.31-1.89l-1.62-2-.87-1.07c-.31-.36-.67-.69-1-1.05C1116.4,846.78,1115.69,846,1114.88,845.23Z"/><path class="cls-3" d="M824.71,993.74c.13-1-.4.54-1.21,3.18l-.65,2.16-.63,2.44-1.31,5.12-1.15,4.48c-.3,1.27-.52,2.24-.66,2.72s-.19.47-.1-.21.26-2.07.74-4.28c-.41,1.5-.72,2.92-1,4.25l-.81,3.74-1.32,6.33-.07.36c0,.07.22,0,.33,0h.72l1.38,0,2.61-.06,5.1-.16c-14.26-.23,3.47-.13-4.18-.45l67.19-1q32.92-.42,64.68-.43c31.6,1.13,59.6-.08,89.82-1.7,18.64.46,6.53,2,2.3,3l23.41,0-23.62,1.25c-.75.74,9.85.81,15.7,1.39l6.59-.19c-3.88,1.78-15.59,1.71-29.12,1.32s-28.88-1.05-40-.62c26.89-.12-4.18-1.08,7.19-1.7l-8.42-.12c7.5,0,22.33-.94,41.73-1.16-53.93-.39-107.54,1.18-151.83,1.88,1.29-.13,4.75-.3.75-.48-15.91-.1-25.27.91-32.24,1.07l7-.21c-9.87-.53-26-.12-37.88-.22l-4.69-.19-2.49-.09-1.75,0-.85,0h-.68v-.05l0-.11c.24-1.14.49-2.26.76-3.37l.56-2.32,1.1-4.59c.7-3.19,1.63-6.61,2.65-10.58.52-2,1-4.12,1.64-6.4l2.08-7.36v.78l1.26-4.26,1.4-4.21c1-2.8,1.85-5.62,2.85-8.41-1.39,4.18-.7,2.5-.38,1.63-.34,1.25-.67,2.1-1.66,5,0,.58.79-1.25,2-4.39s3.11-7.49,4.9-12.07c-1.1,2.9-2.2,5.79-2.94,7.86l3.16-8.19,4.16-9.58c2.67-5.63,4.35-8.7,1.54-2.37-.64,1.31-1.16,2.57-1.66,3.75l-1.41,3.32-2.38,5.54-3.39,8.48c-1.08,2.53-1.91,5.1-3,8.26l-1.79,5.32Z"/><path class="cls-3" d="M867.48,902.46l-3,3.61c-.67.8-1,1.26-1.13,1.41-.26.31.25-.58,1.12-1.73,1.73-2.3,4.48-5.94,3.17-4.57.8-1,1.57-2,2.4-3l2.56-2.87c1.73-1.89,3.35-3.89,5.24-5.64.15,0-.42.67-1.38,1.7L873,895.41l-1.93,2.25-.92,1.07-.78,1C868.39,901.09,867.66,902.1,867.48,902.46Z"/><path class="cls-3" d="M1148.78,1020.09c1.46.69,12.44.42,18.63.64,12.27-.46,15.23-1.19,32.94-.66-6.89.86-3.24,1.48,3.7,2l1.34.09,1,.1c.62.07,1.3.13,2,.19l1.14.09c.15,0,.06-.09.07-.16l0-.25-.06-.51c-.08-.69-.19-1.42-.3-2.18l-.86-5.75c-.26-1.94-.58-3.73-.83-5.28.28,1.06.64,2.22,1,3.49l1,4.07,1.13,4.5.6,2.45.15.64.08.32c0,.1.11.26-.05.22l-1.26,0-5.34.1c-1.78,0-3.57,0-5.37,0-3.6,0-7.21-.14-10.67-.38,1.66-.55-10.77-.91-17-1.1-9.54,1,7.59,2.92-31.18,3.44-7.12-.32-24.69.23-23.57-.93-4.92-.41-9.53,1-15,.08l-2.75-.48,24.17-.73a23.35,23.35,0,0,0,4.92.41c-4.56-.81,26.2-1.68,10.51-3.08h-33.1c-8-.51,3.31-1.23,15.22-1.38C1138.33,1020.9,1137.41,1020.73,1148.78,1020.09Z"/><polygon class="cls-3" points="1066.23 1022.66 1064.43 1022.35 1093.51 1022 1066.23 1022.66"/><path class="cls-3" d="M1196.89,981.07c.94,2.65,1.77,5.15,2.47,7.68s1.36,5.07,2.23,7.74l-.93,1-1.75-8.22C1198.33,986.49,1197.56,983.8,1196.89,981.07Z"/><path class="cls-3" d="M1174.86,928.78c-2.27-4.24-4.47-7.38-6.28-10.24l-1.34-2.07-1.38-1.91-2.68-3.71c-1.72-2.54-3.76-4.93-6.06-8-.59-.74-1.17-1.55-1.83-2.35l-2.13-2.47-2.35-2.74-1.26-1.48c-.45-.49-.94-1-1.42-1.47-3.37-3.53,4.38,4.11-.56-1a82.55,82.55,0,0,0-9-8.2l2,1.86c-1-.92-2.52-2.37-4.23-3.82l-5.23-4-1.09-.83c-.34-.24-.67-.45-.95-.63l-1.14-.78c-.36-.26.17,0,2.09,1.21l4.17,3c1.33,1,2.69,1.84,3.84,2.88l3.47,2.89c1.12.93,2.25,1.8,3.22,2.79l5.76,5.43,5.06,5.32,1.23,1.29,1.14,1.34,2.27,2.67,2.26,2.67c.77.88,1.42,1.86,2.15,2.8,1.41,1.91,2.84,3.86,4.29,5.9s2.72,4.33,4.13,6.68c.48,1.2,1,2.39,1.36,3.63l3.33,5.65c.55.95,1.13,1.87,1.65,2.83l1.54,2.9c.33.84,0,.61,2,4.47,1.13,2,1.49,2.61,1.46,2.41a16.82,16.82,0,0,0-1-2.45c-1.14-2.48-2.77-5.9-2.42-5.66,2,3.73,4.12,7.41,5.92,11.25l2.82,5.71c.9,1.92,1.73,3.87,2.61,5.81,1.14,2.9-1.26-2.27-1-1.38,1,2.84,2.12,5.34,3.09,7.71s1.88,4.59,2.79,6.76l1.35,3.23c.42,1.08.79,2.19,1.17,3.31a71.44,71.44,0,0,1,2,7.11c-1.86-4.92-3.56-9.88-5.63-14.7a274.59,274.59,0,0,1,11.65,44.91,236.82,236.82,0,0,0-6.5-24.81c-1.09-3.75-2.47-7.25-3.67-10.72-.64-1.72-1.18-3.45-1.87-5.11l-2-5-1.95-4.94-2.11-4.88-2.09-4.94c-.7-1.66-1.51-3.29-2.26-5l-2.3-5.1c-.77-1.73-1.68-3.43-2.52-5.2l-2.61-5.42Z"/></g></svg>