<svg xmlns="http://www.w3.org/2000/svg" viewBox="0 0 1280 1024"><defs><style>.cls-1,.cls-4{stroke:#fff;}.cls-1{stroke-miterlimit:10;stroke-width:0.83px;}.cls-2{fill:#fff;}.cls-3{fill:#4caf50;}.cls-4{fill:none;stroke-linecap:round;stroke-linejoin:round;stroke-width:1.78px;}</style></defs><title>アートボード 1 のコピー 4</title><g id="レイヤー_1" data-name="レイヤー 1"><rect class="cls-1" x="1041" y="898.19" width="159" height="78.76" rx="11.34" ry="11.34"/><rect class="cls-2" x="1053.26" y="907.47" width="134.48" height="60.18" rx="11.34" ry="11.34"/><path class="cls-3" d="M1175.24,898.9a72.33,72.33,0,0,1-9-.4,17,17,0,0,1-3.11-.75c5.68-3.32,5.69-12.88,5.69-14.48a26.59,26.59,0,0,0-2.92-11.69c-2.7-5.76-7.48-12.87-12.34-17.25,17.51-2.16,28.42-7.87,28.42-22.68,0-9.89-5.55-19-14.76-26a15.6,15.6,0,0,0-24.9-18.18,10.15,10.15,0,0,0-3.17,5.9,96.9,96.9,0,0,0-40.06,0,10.15,10.15,0,0,0-3.17-5.9,15.6,15.6,0,0,0-24.9,18.18c-9.21,7-14.76,16.08-14.76,26,0,14.27,13,20.09,31.38,22.43-5,4.35-9.88,11.63-12.63,17.5a26.59,26.59,0,0,0-2.92,11.69c0,1.6,0,11.16,5.69,14.48a17,17,0,0,1-3.11.75,72.33,72.33,0,0,1-9,.4,2.35,2.35,0,0,0-1.58.43c-1.06,1,.72,1.79,1.43,1.95a19.92,19.92,0,0,0,10.44-.53c-.52,1.49-3.2,1.63-3.21,3.21a1.56,1.56,0,0,0,.7,1.23,3,3,0,0,0,3,.06,8.8,8.8,0,0,0,2.4-2l2.66-2.81c0,.05.06,2.6.11,2.85a2,2,0,0,0,1.76,1.81,4,4,0,0,0,2.37-.17c.77-.47.22-3.88-.5-4.35a7.27,7.27,0,0,0,5,1c1-.15,3.38-.77,3.18-2.09a24.39,24.39,0,0,0,4,.75c-.39.39-.76.77-1.08,1.15-6.46,7.63-4.33,20.92,2.48,27.45-4.71.16-9.67-.36-14.12-.37-3.76,0-12-1.09-11.65,2.75.62,1.87,3.56,2.35,5.23,2.14-2,.33-7.91,1.16-5.93,3.79,1,1.39,5.08.12,5.82-.25-1.65.87-6.17,2.69-5.47,4.43.53,1,2,.87,3.74.4a.69.69,0,0,1,.7,1.12c-.59.65-1.21,1.53-.95,2,.68,1.13,2.93.12,4.05-.54-1.48,1.06-3.36,3.68-1.26,4s5.51-5.16,7.32-7c4.18-4.18,8-6.62,13.6-7.67,4.33-.81,9.76,0,10.2-3.15,0-.09,0-.18,0-.26,1.32-2.89,1.35-7.83,1.38-13.26,0-6.46.07-12.73-1.32-16.67,3.24-.13,6.67-.27,10.22-.27s7,.14,10.22.27c-1.39,3.94-1.36,10.21-1.32,16.67,0,5.43.06,10.37,1.38,13.26,0,.09,0,.17,0,.26.44,3.15,5.86,2.34,10.2,3.15,5.58,1,9.41,3.49,13.6,7.67,1.81,1.81,5.23,7.32,7.32,7s.21-3-1.26-4c1.13.66,3.37,1.67,4.05.54.26-.44-.36-1.32-.95-2a.69.69,0,0,1,.7-1.12c1.72.47,3.21.57,3.74-.4.7-1.74-3.82-3.56-5.47-4.43.74.37,4.78,1.64,5.82.25,2-2.63-3.93-3.46-5.93-3.79,1.68.21,4.61-.27,5.23-2.14.35-3.83-7.89-2.75-11.65-2.75-4.46,0-9.41.53-14.12.37,6.81-6.53,8.94-19.82,2.48-27.45-.32-.38-.68-.77-1.08-1.15a24.39,24.39,0,0,0,4-.75c-.21,1.32,2.22,1.94,3.18,2.09a7.27,7.27,0,0,0,5-1c-.72.46-1.27,3.88-.5,4.35a4,4,0,0,0,2.37.17,2,2,0,0,0,1.76-1.81c0-.25.16-2.8.11-2.85l2.66,2.81a8.8,8.8,0,0,0,2.4,2,3,3,0,0,0,3-.06,1.56,1.56,0,0,0,.7-1.23c0-1.58-2.69-1.72-3.21-3.21a19.92,19.92,0,0,0,10.44.53c.72-.16,2.49-1,1.43-1.95A2.35,2.35,0,0,0,1175.24,898.9Zm-86.18-.62c-1.36,0-2.07-.77-2.93-1.67a3.36,3.36,0,0,0-.29-.27c.28-3.47-4.18-9.32-2.36-15.36a9.38,9.38,0,0,1,1.55-3,36.29,36.29,0,0,0-.64,6.76c0,7.29,2.16,11.3,5.88,13.46A10.89,10.89,0,0,1,1089.06,898.28Zm66.1-1.94a3.36,3.36,0,0,0-.29.27c-.86.9-1.57,1.69-2.93,1.67a10.89,10.89,0,0,1-1.21-.11c3.72-2.16,5.88-6.17,5.88-13.46a36.29,36.29,0,0,0-.64-6.76,9.38,9.38,0,0,1,1.55,3C1159.34,887,1154.88,892.87,1155.16,896.34Z"/><path class="cls-2" d="M1093.62,789.57c4.87,4.87,2.23,10.13-2.65,15s-10.13,7.52-15,2.65a12.48,12.48,0,1,1,17.65-17.65Z"/><path d="M1091.75,791.23c3.9,3.9,1.78,8.1-2.12,12s-8.1,6-12,2.12a10,10,0,0,1,14.12-14.12Z"/><path class="cls-2" d="M1162.35,807.23c-4.87,4.87-10.13,2.23-15-2.65s-7.52-10.13-2.65-15a12.48,12.48,0,0,1,17.65,17.65Z"/><path d="M1160.7,805.36c-3.9,3.9-8.1,1.78-12-2.12s-6-8.1-2.12-12a10,10,0,0,1,14.12,14.12Z"/><polyline class="cls-4" points="1096.32 819.28 1120.39 828.64 1142.01 819.28"/></g></svg>