<svg xmlns="http://www.w3.org/2000/svg" viewBox="0 0 500 500"><defs><style>.cls-1{fill:#aed581;}.cls-2,.cls-3{fill:none;}.cls-2{stroke:#aed581;stroke-miterlimit:10;stroke-width:11.81px;}</style></defs><title>アートボード 1 のコピー 2</title><g id="レイヤー_1" data-name="レイヤー 1"><circle class="cls-1" cx="194" cy="197" r="14"/><circle class="cls-1" cx="361" cy="197" r="14"/><path class="cls-2" d="M221.83,199a38.63,38.63,0,0,1-38.52,38.52h-32A38.63,38.63,0,0,1,112.78,199h0c0-30,24.54-8.45,54.52-8.45S221.83,169,221.83,199Z"/><path class="cls-2" d="M387.22,199a38.63,38.63,0,0,1-38.52,38.52h-32A38.63,38.63,0,0,1,278.17,199h0c0-30,24.54-8.45,54.52-8.45h0c30,0,54.52-21.54,54.52,8.45Z"/><path class="cls-1" d="M238.06,289.47l-86.11,33.41,98.05-6,102.78,6L262.16,290.1A31.21,31.21,0,0,0,238.06,289.47Z"/><path class="cls-1" d="M237,256.43c.32-3,3.83-12.75,6.8-12.42s4.29,10.62,4,13.6A5.41,5.41,0,1,1,237,256.43Z"/><path class="cls-1" d="M263,256.43c-.32-3-3.83-12.75-6.8-12.42s-4.29,10.62-4,13.6A5.41,5.41,0,1,0,263,256.43Z"/><path class="cls-2" d="M483.22,364c-15.85-81.62-51.42-146.4-96-174.71A54.5,54.5,0,0,0,280.82,173.8H219.18a54.5,54.5,0,0,0-106.36,15.49C68.21,217.6,32.64,282.38,16.78,364"/><rect class="cls-3" width="500" height="500"/></g></svg>