<svg xmlns="http://www.w3.org/2000/svg" xmlns:xlink="http://www.w3.org/1999/xlink" viewBox="0 0 500 500"><defs><style>.cls-1,.cls-5{fill:none;}.cls-2,.cls-5{stroke:#fff;}.cls-2{stroke-miterlimit:10;stroke-width:1.64px;}.cls-3{fill:#fff;}.cls-4{fill:#4caf50;}.cls-5{stroke-linecap:round;stroke-linejoin:round;stroke-width:3.53px;}.cls-6{clip-path:url(#clip-path);}.cls-7{clip-path:url(#clip-path-2);}</style><clipPath id="clip-path"><path class="cls-1" d="M1691.18-856.47a56.27,56.27,0,0,0-56.08-54.84,56.32,56.32,0,0,0-53.38,38.9h-63.44a56.32,56.32,0,0,0-53.38-38.9,56.27,56.27,0,0,0-56.08,54.84c-45.91,29.13-82.51,95.8-98.82,179.79h480C1773.69-760.67,1737.08-827.34,1691.18-856.47Zm-134.84,56.31c3.06-.33,6.67,9.72,7,12.78a5.57,5.57,0,0,1-4.93,6.14,5.57,5.57,0,0,1-6.14-4.93C1551.93-789.23,1553.28-799.83,1556.34-800.17Zm-19.68,12.78c.33-3.06,3.94-13.12,7-12.78s4.41,10.93,4.08,14a5.57,5.57,0,0,1-6.14,4.93A5.57,5.57,0,0,1,1536.66-787.38Zm-127.87-59.07h0c0-30.86,25.25-8.7,56.11-8.7a78.49,78.49,0,0,0,13.07-1.18,16.93,16.93,0,0,0-2.13,8.23,17,17,0,0,0,17,17,17,17,0,0,0,17-17,17,17,0,0,0-7.26-13.93c11.28-2.25,18.38-.8,18.38,15.57h0a39.75,39.75,0,0,1-39.64,39.64h-32.95A39.75,39.75,0,0,1,1408.79-846.46ZM1550-721.67l-100.9,6.17,88.62-34.38a32.12,32.12,0,0,1,24.8.65l93.25,33.72Zm141.21-124.79a39.75,39.75,0,0,1-39.64,39.64h-32.95A39.75,39.75,0,0,1,1579-846.46h0c0-30.86,25.25-8.7,56.11-8.7a87.47,87.47,0,0,0,18.58-2.25,16.93,16.93,0,0,0-2.78,9.3,17,17,0,0,0,17,17,17,17,0,0,0,17-17,17,17,0,0,0-8.24-14.56c9-1.05,14.5,1.8,14.5,16.2Z"/></clipPath><clipPath id="clip-path-2"><rect class="cls-1" x="317.27" y="-951.43" width="1556.1" height="277.79"/></clipPath></defs><title>アートボード 1 のコピー</title><g id="レイヤー_1" data-name="レイヤー 1"><rect class="cls-2" x="92.6" y="286.13" width="314.8" height="155.93" rx="11.34" ry="11.34"/><rect class="cls-3" x="116.87" y="304.52" width="266.26" height="119.15" rx="11.34" ry="11.34"/><path class="cls-4" d="M358.38,287.54c-5.47-.15-11.82.11-17.76-.8a33.7,33.7,0,0,1-6.15-1.49c11.24-6.58,11.27-25.5,11.27-28.67,0-6.59-1.38-13.73-5.78-23.14-5.34-11.39-14.81-25.48-24.44-34.14,34.67-4.28,56.27-15.58,56.27-44.9,0-19.58-11-37.52-29.21-51.41a30.89,30.89,0,0,0-49.31-36c-3.82,3.82-5.77,7.73-6.27,11.68a191.86,191.86,0,0,0-79.31,0c-.5-3.95-2.46-7.86-6.27-11.68a30.89,30.89,0,0,0-49.31,36c-18.23,13.89-29.21,31.83-29.21,51.41,0,28.24,25.64,39.77,62.13,44.4-9.82,8.62-19.56,23-25,34.64-4.4,9.4-5.79,16.55-5.78,23.14,0,3.17,0,22.09,11.27,28.67a33.7,33.7,0,0,1-6.15,1.49c-5.93.9-12.28.65-17.76.8a4.65,4.65,0,0,0-3.12.85c-2.09,2,1.42,3.55,2.84,3.86a39.45,39.45,0,0,0,20.67-1c-1,2.95-6.33,3.23-6.35,6.35A3.1,3.1,0,0,0,157,300a5.92,5.92,0,0,0,5.92.13,17.43,17.43,0,0,0,4.75-3.95L173,290.6c-.1.1.13,5.14.21,5.64a4,4,0,0,0,3.49,3.59c1.27.23,3.53.37,4.68-.33,1.52-.93.44-7.69-1-8.61a14.4,14.4,0,0,0,9.93,2c1.89-.3,6.7-1.53,6.29-4.15a48.29,48.29,0,0,0,7.91,1.48c-.78.76-1.5,1.53-2.13,2.28-12.8,15.11-8.58,41.42,4.91,54.36-9.34.31-19.14-.72-28-.73-7.44,0-23.76-2.15-23.06,5.44,1.23,3.69,7,4.65,10.36,4.23-4,.66-15.65,2.3-11.74,7.5,2.07,2.76,10.06.23,11.53-.49-3.27,1.73-12.22,5.33-10.84,8.78,1,1.93,4,1.73,7.4.8a1.36,1.36,0,0,1,1.38,2.21c-1.16,1.28-2.4,3-1.88,3.89,1.34,2.23,5.79.23,8-1.08-2.92,2.1-6.65,7.29-2.5,8s10.92-10.23,14.49-13.8c8.28-8.28,15.87-13.11,26.92-15.18,8.58-1.61,19.33,0,20.19-6.23,0-.18,0-.35.05-.52,2.62-5.72,2.68-15.51,2.74-26.26.08-12.8.14-25.2-2.61-33,6.41-.25,13.2-.53,20.23-.53s13.81.29,20.23.53c-2.76,7.81-2.69,20.21-2.61,33,.06,10.74.12,20.53,2.74,26.26,0,.17,0,.34.05.52.86,6.23,11.61,4.62,20.19,6.23,11,2.07,18.64,6.9,26.92,15.18,3.58,3.58,10.35,14.49,14.49,13.8s.42-5.88-2.5-8c2.23,1.31,6.68,3.31,8,1.08.52-.86-.72-2.61-1.88-3.89a1.36,1.36,0,0,1,1.38-2.21c3.41.93,6.36,1.13,7.4-.8,1.38-3.45-7.57-7-10.84-8.78,1.46.73,9.46,3.26,11.53.49,3.91-5.21-7.78-6.84-11.74-7.5,3.32.42,9.13-.54,10.36-4.23.69-7.59-15.63-5.45-23.06-5.44-8.82,0-18.63,1-28,.73,13.49-12.94,17.71-39.24,4.91-54.36-.63-.75-1.35-1.52-2.13-2.28a48.29,48.29,0,0,0,7.91-1.48c-.41,2.61,4.4,3.85,6.29,4.15a14.4,14.4,0,0,0,9.93-2c-1.43.92-2.51,7.68-1,8.61,1.15.7,3.41.57,4.68.33a4,4,0,0,0,3.49-3.59c.09-.5.31-5.54.21-5.64l5.26,5.56A17.43,17.43,0,0,0,337,300.1,5.92,5.92,0,0,0,343,300a3.1,3.1,0,0,0,1.4-2.43c0-3.12-5.33-3.4-6.35-6.35a39.45,39.45,0,0,0,20.67,1c1.42-.31,4.94-1.91,2.84-3.86A4.65,4.65,0,0,0,358.38,287.54Zm-170.63-1.22c-2.68,0-4.1-1.52-5.8-3.31a6.66,6.66,0,0,0-.58-.53c.55-6.86-8.27-18.45-4.68-30.42a18.58,18.58,0,0,1,3.07-6,71.86,71.86,0,0,0-1.26,13.39c0,14.44,4.28,22.38,11.64,26.66A21.57,21.57,0,0,1,187.75,286.32Zm130.88-3.84a6.65,6.65,0,0,0-.58.53c-1.7,1.78-3.11,3.35-5.8,3.31a21.57,21.57,0,0,1-2.4-.23c7.36-4.28,11.64-12.22,11.64-26.66A71.86,71.86,0,0,0,320.23,246a18.57,18.57,0,0,1,3.07,6C326.9,264,318.08,275.61,318.63,282.47Z"/><path class="cls-3" d="M196.79,71.09c9.65,9.65,4.41,20.06-5.24,29.71s-20.06,14.89-29.71,5.24a24.71,24.71,0,1,1,35-35Z"/><path d="M193.08,74.37c7.72,7.72,3.53,16-4.19,23.77s-16,11.91-23.77,4.19a19.77,19.77,0,1,1,28-28Z"/><path class="cls-3" d="M332.87,106c-9.65,9.65-20.06,4.41-29.71-5.24s-14.89-20.06-5.24-29.71a24.71,24.71,0,1,1,35,35Z"/><path d="M329.58,102.33c-7.72,7.72-16,3.53-23.77-4.19s-11.91-16-4.19-23.77a19.77,19.77,0,0,1,28,28Z"/><polyline class="cls-5" points="202.12 129.91 249.78 148.44 292.59 129.91"/><g class="cls-6"><g class="cls-7"><image width="2048" height="1365" transform="translate(195.7 -1648.03) scale(1.22)" xlink:href="../../水彩画像/paint_00016.jpg"/></g></g><rect class="cls-1" width="500" height="500"/></g></svg>