<svg xmlns="http://www.w3.org/2000/svg" xmlns:xlink="http://www.w3.org/1999/xlink" viewBox="0 0 500 500"><defs><style>.cls-1{fill:none;}.cls-2{clip-path:url(#clip-path);}.cls-3{clip-path:url(#clip-path-2);}</style><clipPath id="clip-path"><path class="cls-1" d="M391.18,187.53a56.08,56.08,0,0,0-109.46-15.94H218.28a56.08,56.08,0,0,0-109.46,15.94C62.92,216.66,26.31,283.32,10,367.32H490C473.69,283.33,437.08,216.66,391.18,187.53ZM256.34,243.83c3.06-.33,6.67,9.72,7,12.78a5.57,5.57,0,1,1-11.08,1.21C251.93,254.77,253.28,244.17,256.34,243.83Zm-19.68,12.78c.33-3.06,3.94-13.12,7-12.78s4.41,10.93,4.08,14a5.57,5.57,0,1,1-11.08-1.21ZM108.79,197.54h0c0-30.86,25.25-8.7,56.11-8.7A78.49,78.49,0,0,0,178,187.67,17,17,0,1,0,202.62,182c11.28-2.25,18.38-.8,18.38,15.57h0a39.75,39.75,0,0,1-39.64,39.64H148.43A39.75,39.75,0,0,1,108.79,197.54ZM250,322.33,149.1,328.5l88.62-34.38a32.12,32.12,0,0,1,24.8.65l93.25,33.72ZM391.21,197.54a39.75,39.75,0,0,1-39.64,39.64H318.63A39.75,39.75,0,0,1,279,197.54h0c0-30.86,25.25-8.7,56.11-8.7a87.47,87.47,0,0,0,18.58-2.25,17,17,0,1,0,23-5.25c9-1.05,14.5,1.8,14.5,16.2Z"/></clipPath><clipPath id="clip-path-2"><rect class="cls-1" x="-982.73" y="92.57" width="1556.1" height="277.79"/></clipPath></defs><title>アートボード 1 のコピー 6</title><g id="レイヤー_1" data-name="レイヤー 1"><g class="cls-2"><g class="cls-3"><image width="2048" height="1365" transform="translate(-1104.3 -604.03) scale(1.22)" xlink:href="../../水彩画像/paint_00016.jpg"/></g></g><rect class="cls-1" width="500" height="500"/></g></svg>