<svg xmlns="http://www.w3.org/2000/svg" viewBox="0 0 1280 1024"><defs><style>.cls-1{fill:#5a7b6c;}.cls-2{fill:#acb2b1;}.cls-3{fill:#8fb87f;}.cls-4{fill:#d5ff9b;}.cls-5{fill:#fff;}</style></defs><title>アートボード 1 のコピー 3</title><g id="レイヤー_1" data-name="レイヤー 1"><path class="cls-1" d="M1116.09,788.26c-9.37,8-17.51,17.37-26.24,26.36a230.63,230.63,0,0,1-28.2,24.88A267.15,267.15,0,0,1,1030,859.82q-5.4,2.94-10.93,5.61-4,4.07-8.12,8c-1.25,1.17-2.55,2.3-3.82,3.44l-1.91,1.72-2,1.63-8,6.51-2,1.62-2.08,1.5-4.17,3-4.17,3-2.09,1.49-2.17,1.37-8.7,5.46-2.17,1.36-2.25,1.23-4.5,2.47-4.5,2.46-2.25,1.23c-.76.39-1.54.74-2.31,1.11l-9.26,4.4c-3.05,1.54-6.26,2.72-9.41,4l-4.74,1.93c-1.59.62-3.14,1.35-4.76,1.87l-9.68,3.31-4.84,1.65-4.92,1.4-9.83,2.8c-1.63.51-3.3.82-5,1.23l-5,1.16-5,1.16c-1.66.38-3.31.8-5,1.07l-10,1.82-5,.9c-1.68.27-3.37.46-5,.7l-10.1,1.35c-3.36.51-6.75.73-10.13,1.06l-10.14.92A521.72,521.72,0,0,1,743,946c27,.72,54.08.24,80.87-2.65l10-1.21c3.34-.42,6.69-.73,10-1.33l10-1.62c1.66-.28,3.32-.52,5-.83l4.93-1,9.86-2c1.65-.3,3.27-.75,4.9-1.16l4.88-1.24,4.88-1.24c1.62-.43,3.27-.77,4.86-1.3l9.61-3A281.49,281.49,0,0,0,975,893.15l2.1-1.35,2-1.48,4-2.94,4-2.94,2-1.47,1.93-1.59,7.71-6.36,1.71-1.41q-2.33.93-4.67,1.81a309.88,309.88,0,0,1-35.86,11,347.52,347.52,0,0,1-36.85,6.74c-6.19.79-12.41,1.36-18.63,1.86s-12.45.79-18.68,1-12.46.26-18.69.17-12.46-.32-18.67-.64c24.89.45,49.83-.6,74.41-4.31a351.45,351.45,0,0,0,36.5-7.24,307.08,307.08,0,0,0,35.37-11.4q6.52-2.58,12.9-5.46,6.54-6.24,12.59-13c4.46-5,8.73-10.12,13-15.34s8.68-10.44,13.29-15.51,9.41-10,14.44-14.65c1.26-1.17,2.55-2.29,3.82-3.44l1.91-1.72,2-1.63,8-6.51,2-1.62,2.08-1.5,4.17-3,4.17-3,2.09-1.49,1.12-.7H930.88a78.1,78.1,0,0,1-10,16.66c-19.48,24.59-51,36-81.44,43.61-54.09,13.5-108.1,16.06-162.76,21.86-3.9.61-7.63,1.07-11.13,1.37-1.15.1-2.3.18-3.46.27-74.28,5.77-152.58-10-225.8,2.9C405.09,876.17,343,905,363.5,949.5c11.05,24,67,30.86,127.1,34.5H1280V784H1121.06Q1118.55,786.1,1116.09,788.26Z"/><path class="cls-1" d="M1084.82,797.56l-2,1.47-1.93,1.59-7.71,6.36-1.93,1.59-1.85,1.68c-1.23,1.12-2.48,2.22-3.7,3.36q-7.29,6.83-14,14.28c-4.47,5-8.74,10.11-13,15.33-4.09,4.95-8.25,9.92-12.59,14.75l2.26-1.22a263.48,263.48,0,0,0,31-20.28A231.52,231.52,0,0,0,1087,811.89c8.6-8.88,16.83-18.4,26.39-26.62l1.47-1.27h-10.32q-3.82,2.36-7.56,4.84l-2.1,1.35-2,1.48-4,2.95Z"/><path class="cls-2" d="M665.5,867.5c3.5-.3,7.23-.76,11.13-1.37q-7.29.77-14.59,1.64C663.19,867.68,664.35,867.6,665.5,867.5Z"/><path class="cls-3" d="M676.63,866.13c54.66-5.8,108.68-8.36,162.76-21.86,30.44-7.6,62-19,81.44-43.61a78.1,78.1,0,0,0,10-16.66H790.48C784.71,833.6,720,859.37,676.63,866.13Z"/><path class="cls-4" d="M363.5,949.5c-20.5-44.5,41.59-73.33,72.74-78.83,73.22-12.94,151.52,2.86,225.8-2.9q7.3-.87,14.59-1.64C720,859.37,784.71,833.6,790.48,784H0V984H490.6C430.49,980.36,374.55,973.49,363.5,949.5Z"/><path class="cls-5" d="M1073.26,941.36v.2C1073.59,941.69,1073.26,941.36,1073.26,941.36Z"/><path class="cls-5" d="M1243.11,843.91a3.69,3.69,0,0,1-2.07-.25c-.65-.4-1-1.15-1.65-1.57s-2,.37-2.21-.74c-.11-.7.72-1.16,1.28-1.16,1.86,0,5.57-.93,6.5-.93s2.78-1.85.93-1.86c-2.21,0-4.42,0-6.62.07-1.89,0-4.26.36-6.08-.09a5.76,5.76,0,0,1,2.06-.88,3.44,3.44,0,0,0,1.08-.42c.09-.06.58-.61.62-.61-.69-.07-1.15-.56-1.84-.62a8,8,0,0,0-2.1.24,15.56,15.56,0,0,0-3.83,1.37,23.29,23.29,0,0,1-9.28,1.86c-3.71,0-6.5-.93-6.5,0s-8.35,8.35-8.35,8.35-9.28,10.21-12.07,12.07-7.42,3.71-8.35,5.57-2.78,3.71-3.71,6.5-1.86,2.78-1.86,2.78a19.2,19.2,0,0,1-7.42,1.86c-3.71,0-12.07,0-14.85,1.86-2.27,1.51-4.75,2.23-7.17,3.34-1.23.57-.84.94-1.13,2.18a6.35,6.35,0,0,1-1.91,2.83c1-1,.64-3.15.09-4.87-.65-.57-.78-1.54-1.56-2.11a4.09,4.09,0,0,0-3.59-.18,3.13,3.13,0,0,1-1.8.19.36.36,0,0,1-.21-.09.39.39,0,0,1,0-.33c.85-5.07,1.48-10.67.62-15.8a40.82,40.82,0,0,1-.7-7,14.46,14.46,0,0,1-.13-2.58c.28-1.11,1.73-.86,2.61-.83a5.68,5.68,0,0,0,3.79-.77c2.78-1.86,8.35-6.5,8.35-6.5s7.42-8.35,9.28-10.21,7.42-5.57,9.28-8.35,6.5-9.28,8.35-11.14l2.46-2.46.87-.87c.22-.22.63-.41.77-.67a1.18,1.18,0,0,0,.1-.58,5.31,5.31,0,0,0-.16-1.23,1.54,1.54,0,0,0-.35-.73.65.65,0,0,0-.74-.16,3.46,3.46,0,0,0,.06,1.08.33.33,0,0,1,0,.24.3.3,0,0,1-.08.08,9.2,9.2,0,0,1-2.12,1,5.27,5.27,0,0,0-1.12.6c-.21.15-.58.74-.81.78-.42.07-.68-.81-.75-1.1a5.38,5.38,0,0,1,.39-3.22,9.72,9.72,0,0,1,1.44-2.81,17.58,17.58,0,0,0,1.62-2.42,4.61,4.61,0,0,1,2-2.06,1.54,1.54,0,0,0,.33-.18.84.84,0,0,0,.21-.87,2.46,2.46,0,0,0-.48-.81c-.32-.41-1.61.24-2,.5a7.28,7.28,0,0,0-1.79,2c-.26.4-.51.82-.78,1.26s-.72,1.16-1.1,1.73c-.26.38-.57,1-1,1.2-1.1.45-1.12-.79-1.12-1.46s0-1.27,0-1.91c0-1.27.07-2.54.2-3.8a16.92,16.92,0,0,1,.43-2.4A7.59,7.59,0,0,1,1178,794a7.18,7.18,0,0,1,1.19-1.24,9.43,9.43,0,0,1,.66-.67c.45-.37,1.37.07,1.35-.74a2.37,2.37,0,0,0-.22-1.13c-.21-.3-.35-.22-.73-.13a6.08,6.08,0,0,0-1.74.7,10.29,10.29,0,0,0-2.76,2.49,5.27,5.27,0,0,0-.79,1.35,4.24,4.24,0,0,0-.28,1.08c-.13,1.1-.16,2.23-.33,3.32a10.58,10.58,0,0,1-.59,1.9c-.22.61-.16,1-.83,1.21s-1.91.6-2.19-.18a6.28,6.28,0,0,1,0-2v-1.46a6.93,6.93,0,0,1,.11-1.58,1.43,1.43,0,0,0,.07-.43,1.17,1.17,0,0,0-.13-.39l-.38-.82a.22.22,0,0,0-.32-.15,2.5,2.5,0,0,0-.77.31c-.63.43-.25.91-.2,1.48.07.72,0,1.5.06,2.23a6.7,6.7,0,0,1-.19,2.62,1.94,1.94,0,0,0-.29,1c.07.37.37.58.44,1,.11.57.16,1.18.22,1.76a67.68,67.68,0,0,1,.45,6.91,20.44,20.44,0,0,1-.93,7.42c-.93,2.78-.93,3.71-4.64,6.5s-12.07,9.28-15.78,11.14-8.35,3.71-9.28,4.64l-3.71,3.71c-.93.93-1.86.93-2.78,2.78s-1.86.93-2.78,4.64-2.78,4.64-3.71,10.21-.93,3.71-.93,11.14-.93,8.35-2.78,10.21-4.64,5.57-10.21,6.5-10.21,6.5-10.21,6.5-3.71,3.71-4.64,7.42a26,26,0,0,0-.93,4.64l-.3-.06c-1.51-.31-8.37-1.59-10.84.06a21.37,21.37,0,0,1-8.35,2.78c-1.39,0-3.48-.44-4.7.27-1.41.82-2.2,2.43-3.2,3.65q-2.48,3-4.91,6.07c-1.58,2-3.15,4-4.63,6.05-.59.83-2,2.34-2,3.45,0,1.86-.93,3.71,0,4.64s1.86,7.42,1.86,7.42c0,.17,1,.65,1.11.74a6.48,6.48,0,0,0,1.69.71.18.18,0,0,0,.15,0,.18.18,0,0,0,.06-.09,2.18,2.18,0,0,0-.17-1.72c-.3-.59-.78-1-1-1.61a9,9,0,0,1-.6-2,14.14,14.14,0,0,1-.26-2.54,4.48,4.48,0,0,1,3.71,0c1.86.93,7.42,4.64,7.42,5.57s1.86.93,1.86.93v-2.59a13.78,13.78,0,0,1-1.86-1.13,63.28,63.28,0,0,1-6.5-4.64c-.93-.93-.93,0,0-.93s12.07,0,12.07,0a1.31,1.31,0,1,0,1.86-1.86s-.93-1.86-1.86-.93-.93.93-3.71.93a5.85,5.85,0,0,1-3.31-.91c-.39-.29-1.94-2.13-1.91-.51,0,1.07-1.29.88-1.18,0,.07-.55.82-1.05,1.24-1.32a10.71,10.71,0,0,1,2.38-1l5.57-1.86a.91.91,0,0,0,.93-.93c0-.93-1.86-1.86-1.86-.93s-3.71,2.78-4.64,2.78-3.71.93-4.64,0,0,0,.93-.93,5.57-7.42,8.35-8.35,4.64,0,8.35,0h7.42v2.78a25.39,25.39,0,0,1-4.64,3.71,2.3,2.3,0,0,0-.93,3.71c.93.93,0,5.57,0,5.57s-.93,7.42,0,8.35,0,.93,1.86,1.86a9.18,9.18,0,0,0,7.42.93c3.71-.93,4.64-2.78,7.42-2.78s3.71-.93,3.71-.93,0,.93,1.86,0,1.86-3.71,1.86-3.71,0-.93,1.86-.93,1.86-.93,1.86-1.86,3.71,3.71,6.5,5.57a25.39,25.39,0,0,1,4.64,3.71,4.58,4.58,0,0,1,.93,2.78s-6.5,12.07-8.35,12.07-1.86-.93-2.78-1.86-1.86-3.71-.93-4.64,0-.93-.93-.93-.93,3.71-.93,3.71l.93,1.86c0,.93,0,1.86,0,2.78-.42-.27-1-.3-1.45-.58a22.81,22.81,0,0,1-3.6-3.34,39.3,39.3,0,0,0-3-2.55,5.85,5.85,0,0,0-1.9-1.31,1.9,1.9,0,0,0-1.65,1c-.35.7.62,1.38,1.15,1.6a8.19,8.19,0,0,1,1.81,1.16c.6.45,1.17,1,1.78,1.41a17.1,17.1,0,0,1,2.22,1.7c.93.93.93,2.78,0,1.86s-12.07-2.78-12.07-2.78a2.76,2.76,0,0,0-1.44.31c-.65.43-.36,1.38-.37,2.07a.34.34,0,0,0,.09.29.33.33,0,0,0,.19,0c1.05.06,2.06,0,3.11.11s1.81.2,2.71.31a50.77,50.77,0,0,0,5.92.57,1.7,1.7,0,0,1,1.44,2.32c-.29.68-1.24.87-1.85,1.16q-1.57.73-3.11,1.53a47.12,47.12,0,0,1-6.18,2.94,1.57,1.57,0,0,0-.79.45c-.6.8.45,1.8,1.2,1.8a6.9,6.9,0,0,0,2.86-1.2c1.42-.78,2.79-1.65,4.15-2.53.64-.41,1.3-.8,1.91-1.26.78-.58.81-1,1.91-.91a28.07,28.07,0,0,0,6.61-.09c1.55-.3,4.05-.79,4.84-2.37a12.37,12.37,0,0,1,4.64-5.57c2.78-1.86,9.28-8.35,10.21-11.14s-2.78-5.57-3.71-6.5-3.71-4.64-3.71-5.57-.93-3.71-1.86-3.71.93-1.86,1.86-1.86,7.42-1.86,9.28-3.71,7.42-6.5,9.28-11.14.93-11.14,1.86-13.92,3.71-5.57,4.64-6.5,8.35-4.64,13-6.5,13-5.57,15.78-7.42,6.5-2.78,7.42-4.64,12.07-15.78,13.92-17.63,10.21-13.92,13-13.92,13-.93,13.92,0c1.27,1.27,4,1.8,5.62,2.34a5.49,5.49,0,0,0,2.65.61c.65-.09,1.3-.21,2-.28.47-.05,1.64.12,2-.13,1.34-.87-1.77-.76-2.07-.74a1,1,0,0,1-.73-.18c-.1-.12-.09-.29.14-.52a4.73,4.73,0,0,1,1.82-.57c1.46-.13,2.92.41,4.38.41,1.69,0,3.71.22,5.33-.37a3.76,3.76,0,0,0,1.8-1.41C1248.48,844,1245.8,843.91,1243.11,843.91Z"/><path class="cls-1" d="M220,897c4-7,6-12,5-17-1-4.77-4.59-9.28-8.08-12.49-2.46-2.27-5.44-4.14-7.24-7-1.91-3.09-1.9-6.11-5.16-8.43-2.15-1.54-4.65-2.52-6.87-4-5.51-3.56-9.09-8.2-15.65-10.07-7-2-8-5-23-5s-17,1-20,2-7,5-7,7c0,3.43.46,6.49,2.78,8.86.13-.51.27-1,.46-1.57a16.94,16.94,0,0,1,2.21-4.43,25.06,25.06,0,0,1,3.2-3.6,39.22,39.22,0,0,1,3.63-3l.1-.07.47.57-.09.08a38.12,38.12,0,0,0-3.2,3.33,23.21,23.21,0,0,0-2.63,3.68,15.13,15.13,0,0,0-1.52,4.11c-.05.24-.1.48-.14.72a11.74,11.74,0,0,1,2.33-2,14.57,14.57,0,0,1,1.5-.84c.57-.25,1.08-.46,1.54-.63l2.9-1.12a99.93,99.93,0,0,1,12-3.91,46.2,46.2,0,0,1,6.25-1.13,41.65,41.65,0,0,1,6.34-.1,101.29,101.29,0,0,1,12.48,1.23l.12,0-.11.74-.12,0a100.63,100.63,0,0,0-12.4-.72,40.71,40.71,0,0,0-6.12.34,44.56,44.56,0,0,0-6,1.33,98,98,0,0,0-11.58,4.3l-2.86,1.24c-.39.16-.74.33-1.07.48l-.28.13a11.94,11.94,0,0,0-1.17.72,9.18,9.18,0,0,0-2,1.88,8.05,8.05,0,0,0-.79,1.29c6.45,2.74,12.92,5.68,19.24,8.75,1.36.66,2.69,1.34,3.94,2a105.77,105.77,0,0,1,12.81-2,58.54,58.54,0,0,1,6.76-.11c2.59.05,4.71.12,6.66.2A110,110,0,0,1,201,863.94a47.81,47.81,0,0,1,12.71,4.22l.11.05-.32.68-.11,0a46.77,46.77,0,0,0-12.59-3.67,109.31,109.31,0,0,0-13.17-.73c-1.86,0-4,0-6.63.05a56.51,56.51,0,0,0-6.52.35,95,95,0,0,0-9.35,1.67c.79.42,1.59.84,2.38,1.28,3.2,1.78,6.28,3.64,9.69,5.71,2.92,1.78,6.29,3.88,9.44,6.2a101.64,101.64,0,0,1,8.73,7.2c2.61,2.38,5.22,5,8,7.94,3,3.16,5.34,5.83,7.47,8.4l.08.09-.55.49-.08-.09c-6-6.19-11.18-11.07-16.2-15.36-3.41-2.87-6.12-5-8.77-6.78s-5.65-3.7-9.41-5.9l-4.84-2.8c-1.94-1.13-3.43-2-4.84-2.76-2.09-1.14-4.23-2.24-5.9-3.08.39,2.7.76,5,1.16,7.13a48.87,48.87,0,0,0,2.54,9.57c1.26,3.33,2.47,6.41,3.69,9.4.71,1.73,1.35,3.25,2,4.64l.09.2a41.93,41.93,0,0,0,2.12,4.29l.06.1-.63.4-.07-.1a42.47,42.47,0,0,1-2.38-4.26l-.1-.2c-.7-1.39-1.42-2.89-2.2-4.57-1.36-2.92-2.76-6-4.16-9.23a50.65,50.65,0,0,1-3.12-9.77c-.66-2.78-1.28-5.75-1.91-9.07l-1.06-.53c-6-2.93-12.41-5.93-20.23-9.42l-1.31-.45c-.39,2.74-.7,5.51-.92,8.22a86.85,86.85,0,0,0-.32,9.35c.09,2.86.35,5.92.8,9.35s1,6.45,1.59,9.29l0,.12-.72.18,0-.12c-.77-2.83-1.46-5.86-2.09-9.27s-1.07-6.54-1.31-9.45a87.31,87.31,0,0,1-.18-9.57c.07-2.44.21-4.9.42-7.51a65,65,0,0,0-5.75,3.82,40.06,40.06,0,0,0-3.54,3,26.07,26.07,0,0,0-3,3.5,75.51,75.51,0,0,0-5.09,7.91c-.9,1.62-1.57,3-2.13,4.2a26.42,26.42,0,0,0-1.62,4.39l0,.12-.73-.16,0-.12a36.3,36.3,0,0,1,3.28-9.05,68.49,68.49,0,0,1,4.79-8.35,28.52,28.52,0,0,1,3-3.86,36.36,36.36,0,0,1,3.64-3.27,66.93,66.93,0,0,1,5.88-4.15,43.43,43.43,0,0,0-13.15-3.5,40.92,40.92,0,0,0-16,1.62l-.12,0-.24-.7.11,0a42.14,42.14,0,0,1,16.37-2.66,45.23,45.23,0,0,1,12.19,2.2c-3.56-2.47-8.07-5.73-8.8-6.05-1.85-.82-4.12-1.23-6.08-1.87a26.58,26.58,0,0,0-7.22-.94c-2.84-.12-6.33-.5-8.82,1.17-3,2-4,3-6,7-4,0-7,0-11,4s-7,5-7,10,1,8,3,9c2,3,0,5,1,5s14,12,21,15,9,4,11,6a6.19,6.19,0,0,1,2,4c4-3,5-2,7-2s2,1,5,2c1.91.64,2.29,2.37,3.4,3.79,1.56,2,3.38,1,5.61.63a7.3,7.3,0,0,1,5.38,1.37c1.17.89,2,3.22,3.61,3.22,2,0,3-1,6-2s4,1,15,2,20,1,28-2,5-3,13-3,9,0,13,2c-1-3-4-4-3-6S216,904,220,897Z"/><path class="cls-1" d="M291.31,850.42a11,11,0,0,1-1.62-3.88,4.62,4.62,0,0,1,.81-3c1-2,3-5-1-9s-17-9-21-9a18.73,18.73,0,0,1-7.31-1.29c-1.94-.83-3.63-2.23-5.64-2.91-2.41-.81-5-.43-7.5-.56-10.81-.56-22.6-.23-32.56,4.75-1.72.86-4.5,1.39-5,3.55a3.1,3.1,0,0,0,1.1,3.1c1.48,1.14,3.54,1,4.92,2.35h0a16.39,16.39,0,0,1,1.54,1.94l0-.29.57,0a17.6,17.6,0,0,1,4-5.92,16.8,16.8,0,0,1,6.84-4.06l.22-.07.25.67-.21.1a15.54,15.54,0,0,0-5.8,4.53,15.29,15.29,0,0,0-2.48,4.59l3.59-.18a28.28,28.28,0,0,1,10.92-8.24,23.93,23.93,0,0,1,13.69-1.41l.24,0-.12.73-.24,0a22.94,22.94,0,0,0-13.07,1.82,26.43,26.43,0,0,0-9.07,7c2.75-.12,5.28-.2,7.74-.25h.57c2.41,0,5.15-.08,7.82.12,1.17.1,2.37.24,3.35.37l.27-.16a38.85,38.85,0,0,1,12.39-4.52,38.14,38.14,0,0,1,13.11-.09l.24,0-.11.73-.24,0a37.23,37.23,0,0,0-22.82,4.4l2.1.26a58.38,58.38,0,0,1,7.12,1.54l1.07.28c2.54.68,5.15,1.45,8,2.33,5.08,1.59,10.36,3.43,15.71,5.46l.23.09-.25.7-.23-.08c-5.38-1.87-10.69-3.54-15.81-5-2.88-.8-5.49-1.48-8-2.08l-1.05-.24a57.24,57.24,0,0,0-7-1.3l-1.16-.11a42.31,42.31,0,0,0,17.25,10l.23.07-.19.71-.24-.06a43.34,43.34,0,0,1-19.71-11c-1.41-.14-2.91-.28-4.39-.37-2.58-.11-5.33,0-7.76.12l-.43,0c-3.09.15-6.35.37-10.24.67a34.82,34.82,0,0,0,6.86,9.51,35.46,35.46,0,0,0,10.92,7.3l.23.1-.28.69-.23-.09A36.32,36.32,0,0,1,223,838.49l-4.42.38-.38,0-.12-1.6-1.61-.8s-2-1-9,2-12,2-11,6,9,8,16,10,14,4,19,4,15,2,24,2,23-4,27-5a23.19,23.19,0,0,0,5.11-2.15c2.2-1.16,3.42,0,5.6,1C293.48,852.85,292,851.57,291.31,850.42Z"/><path class="cls-1" d="M326,864c0,3.72-5.84,6.86-9,8a18,18,0,0,1-7,1c-6.84-.33-16-4.34-16-9,0-5,7.16-9,16-9C317.51,855,326,859.46,326,864Z"/><ellipse class="cls-1" cx="325" cy="873" rx="8" ry="6"/><path class="cls-1" d="M98.19,815.69a11.8,11.8,0,0,0-6.86-1.57,8.45,8.45,0,0,0,1.62-2.9c.95-3-3.17-7-5.44-8.15-3.73-1.83-8.43-2.33-13-2.35-2,0-3.89.08-5.7.18A3.48,3.48,0,0,1,70,805c-1.6-4-7.69-2.88-10-2.27-5.18,2.33-8.78,8.62-3.27,13.11,4.24,3.46,10.66,2.79,15.76,3.11a46.78,46.78,0,0,0,7.8-.14,3.23,3.23,0,0,0,0,.88c.62,4.66,9.09,4.34,12.27,3.81,2.26-.38,5.18-.85,6.61-2.88A3.36,3.36,0,0,0,98.19,815.69Z"/></g></svg>